<svg width="27" height="27" viewBox="0 0 27 27" fill="none" xmlns="http://www.w3.org/2000/svg">
<path d="M15.5203 25.1915L14.1825 26.5641C13.616 27.1453 12.7 27.1453 12.1396 26.5641L0.42484 14.5511C-0.141616 13.9699 -0.141616 13.0301 0.42484 12.4551L12.1396 0.435883C12.7061 -0.145294 13.622 -0.145293 14.1825 0.435883L15.5203 1.80845C16.0927 2.39581 16.0807 3.35413 15.4962 3.92913L8.23468 11.0269L25.5537 11.0269C26.3552 11.0269 27 11.6885 27 12.5108L27 14.4892C27 15.3115 26.3552 15.9731 25.5537 15.9731L8.23468 15.9731L15.4961 23.0709C16.0867 23.6459 16.0988 24.6042 15.5203 25.1915Z" fill="#303030"/>
</svg>
