<svg width="15" height="19" viewBox="0 0 15 19" fill="none" xmlns="http://www.w3.org/2000/svg">
<path fill-rule="evenodd" clip-rule="evenodd" d="M14.1645 0.570312H0.831529C0.372958 0.570312 0 0.936516 0 1.38775V3.84295C0 4.29612 0.372958 4.66232 0.832513 4.66232L1.66699 17.7529C1.66699 18.206 2.03995 18.5703 2.49951 18.5703H12.4985C12.96 18.5703 13.333 18.206 13.333 17.7529L14.1655 4.66232C14.627 4.66232 15 4.29612 15 3.84295V1.38775C14.998 0.936516 14.6251 0.570313 14.1645 0.570313V0.570312ZM11.665 16.9335H3.33301L2.49852 4.66232H12.4975L11.665 16.9335ZM13.332 3.02455H1.66601V2.20712H13.331V3.02455H13.332ZM5.83251 16.117C6.29404 16.117 6.66699 15.7508 6.66699 15.2977V6.29816C6.66699 5.84499 6.29404 5.47879 5.83251 5.47879C5.37296 5.47879 5 5.84499 5 6.29816V15.2977C5 15.7508 5.37296 16.117 5.83251 16.117ZM9.16552 16.117C9.62704 16.117 10 15.7508 10 15.2977V6.29816C10 5.84499 9.62704 5.47879 9.16552 5.47879C8.70596 5.47879 8.333 5.84499 8.333 6.29816V15.2977C8.333 15.7508 8.70596 16.117 9.16552 16.117Z" fill="#303030"/>
</svg>
