<?xml version="1.0" encoding="UTF-8"?>
<!DOCTYPE svg PUBLIC "-//W3C//DTD SVG 1.1//EN" "http://www.w3.org/Graphics/SVG/1.1/DTD/svg11.dtd">
<!-- Creator: CorelDRAW X7 -->
<svg xmlns="http://www.w3.org/2000/svg" xml:space="preserve" width="23.233mm" height="7.2378mm" version="1.1" style="shape-rendering:geometricPrecision; text-rendering:geometricPrecision; image-rendering:optimizeQuality; fill-rule:evenodd; clip-rule:evenodd"
viewBox="0 0 2323 724"
 xmlns:xlink="http://www.w3.org/1999/xlink">
 <defs>
  <style type="text/css">
   <![CDATA[
    .fil1 {fill:#442828}
    .fil0 {fill:#E3AC3B}
    .fil2 {fill:#442828;fill-rule:nonzero}
   ]]>
  </style>
 </defs>
 <g id="Слой_x0020_1">
  <metadata id="CorelCorpID_0Corel-Layer"/>
  <g id="_904278928">
   <path class="fil0" d="M841 168c6,-16 12,-30 20,-46 -34,-21 -79,-22 -114,-2 7,18 15,35 26,52 22,-1 45,-2 68,-4l0 0zm-178 291c-225,10 -449,27 -663,50 206,-32 420,-55 640,-69 6,6 15,14 23,19l0 0zm453 -34c390,0 764,30 1115,84 -358,-39 -731,-60 -1115,-60 -58,0 -123,2 -180,3l22 -25c53,-1 105,-2 158,-2l0 0zm-272 -244c39,140 90,171 82,320 -19,44 -77,54 -85,106l-94 -110c15,-94 26,-212 28,-313 0,0 0,0 0,0 23,-1 46,-2 69,-3l0 0z"/>
   <path class="fil1" d="M2043 73c13,0 26,0 40,0l43 0 0 0 21 0 0 60 -45 -12 0 -18c0,-10 -5,-14 -18,-14l-41 0c-60,2 -106,56 -109,126l0 0c0,1 0,1 0,2 0,0 0,0 0,0 0,0 0,1 0,1 0,0 0,0 0,0 0,1 0,1 0,1 0,0 0,0 0,0 0,0 0,0 0,0 0,0 0,0 0,0 0,0 0,0 0,0 0,0 0,0 0,1 0,0 0,0 0,0 0,0 0,0 0,0 0,0 0,0 0,0 0,0 0,0 0,0 0,0 0,0 0,0 0,0 0,0 0,0 0,0 0,0 0,0 0,1 0,1 0,1 0,0 0,0 0,0 0,0 0,0 0,0 0,0 0,0 0,0 0,0 0,0 0,0 0,0 0,0 0,0 0,0 0,0 0,0 0,0 0,0 0,0 0,2 0,3 0,4 0,0 0,0 0,0 2,71 50,124 109,129 43,4 86,-26 96,-39l18 7c-27,30 -67,48 -114,48 -53,0 -102,-28 -130,-69 0,-1 0,-1 0,-1 0,0 0,0 0,0 -22,-34 -29,-75 -19,-113 16,-65 77,-114 149,-114l0 0zm-1899 276c-16,0 -20,-5 -20,-18l0 -79 0 -24 0 -3c1,-10 6,-15 20,-15l28 0c9,0 17,2 25,5 26,11 44,36 44,65 0,28 -17,52 -41,63 -11,5 -20,6 -30,6l-26 0zm-81 -259l1 0c0,0 0,0 0,0 9,0 16,4 17,15 0,0 0,0 0,0 0,0 0,0 0,0 0,0 0,0 0,0l0 226c0,15 -9,18 -17,18l-1 0 0 17 1 0c44,0 87,0 131,0 0,0 0,0 0,0 1,0 1,0 1,0 0,0 0,0 0,0l0 0c49,-1 89,-39 89,-86 0,-47 -40,-86 -89,-86l0 0c0,0 0,0 0,0 0,0 0,0 -1,0 0,0 0,0 0,0 0,0 0,0 0,0 0,0 0,0 0,0 0,0 0,0 0,0 -30,0 -48,0 -71,0l0 -90c1,-10 6,-14 20,-14l45 0 8 0c14,0 19,4 20,14l0 19 46 13 0 -63 -22 0 0 0 -134 0 0 12 -44 -12 0 0 0 17zm336 14c0,-10 5,-14 19,-14l0 0c0,0 0,0 0,0 0,0 0,0 0,0 0,0 0,0 0,0 0,0 0,0 0,0 0,0 0,0 0,0 0,0 0,0 0,0 0,0 0,0 0,0 0,0 0,0 0,0 0,0 0,0 0,0 0,0 0,0 0,0 0,0 0,0 0,0 0,0 0,0 0,0 0,0 0,0 0,0 0,0 0,0 0,0 0,0 0,0 0,0 0,0 0,0 0,0 0,0 0,0 0,0 0,0 0,0 0,0 0,0 0,0 0,0 0,0 0,0 0,0 0,0 0,0 0,0 0,0 0,0 0,0 0,0 0,0 0,0 0,0 0,0 0,0 0,0 0,0 0,0 0,0 0,0 0,0 0,0 0,0 0,0 0,0 0,0 0,0 0,0 0,0 0,0 0,0 0,0 0,0l26 0 1 0c10,0 19,2 29,6 25,11 42,35 42,63 0,29 -19,54 -45,65 -8,3 -16,5 -24,5l-29 0c-14,0 -19,-5 -19,-15l0 -3 0 -107 0 0zm-61 -14l0 0c0,0 0,0 1,0 9,0 15,4 16,15 0,0 0,0 0,0 0,0 0,0 0,0 0,0 0,0 0,0l0 228c0,13 -9,16 -17,16l0 0 0 17 0 0 78 0 0 0 0 -17 0 0c-8,0 -17,-3 -17,-16l0 -65 0 0 0 -23c23,0 41,0 70,0 1,0 1,0 1,0 0,0 0,0 0,0 0,0 0,0 0,0 0,0 0,0 0,0 0,0 0,0 0,0 1,0 1,0 1,0l0 0c49,0 88,-39 88,-86 0,-47 -39,-85 -88,-86l0 0c0,0 0,0 -1,0 0,0 0,0 0,0 0,0 0,0 0,0l-88 0 0 12 -44 -12 0 0 0 17 0 0zm474 6c41,4 76,28 100,63 25,34 39,80 38,130 -1,37 -10,72 -25,102 3,17 6,35 7,55 5,-4 10,-9 14,-13 35,-38 57,-88 58,-143 1,-55 -19,-105 -52,-144 -34,-39 -82,-66 -139,-72 -58,-6 -116,14 -158,50 -45,38 -74,94 -76,157 -1,46 12,89 35,124 23,35 56,62 94,79 10,4 20,7 30,10l5 -29c-18,-9 -35,-23 -50,-41 -28,-35 -46,-86 -44,-141 1,-56 21,-105 52,-139 30,-33 70,-51 111,-48l0 0zm245 -6l0 0c1,0 1,0 1,0 9,0 16,4 17,15 0,0 0,0 0,0 0,0 0,0 0,0 0,0 0,0 0,0l0 13 0 0 0 4 0 0 0 165 0 0 0 46c-1,13 -9,16 -18,16l0 0 0 17 1 0 77 0 1 0 0 -17 -1 0c-8,0 -16,-3 -17,-16l0 -101c0,-7 6,-6 9,-5l147 139 56 0 0 0 0 -17 0 0c-10,0 -16,-4 -20,-9l-149 -139 106 -103c11,-10 31,-8 32,-8l0 0 0 -17 0 0 -58 0 0 17c6,-1 11,1 7,5l-130 124 0 -97 0 0 0 -4 0 -5 0 -9c1,-10 5,-14 19,-14l0 0c0,0 0,0 0,0 0,0 0,0 0,0 0,0 0,0 0,0 0,0 0,0 0,0 0,0 0,0 0,0 0,0 0,0 0,0 0,0 0,0 0,0 0,0 0,0 0,0 0,0 0,0 0,0 0,0 0,0 0,0 0,0 0,0 0,0 0,0 0,0 0,0 0,0 0,0 0,0 0,0 0,0 0,0 0,0 0,0 0,0 0,0 0,0 0,0 0,0 0,0 0,0 0,0 0,0 0,0 0,0 0,0 0,0 0,0 0,0 0,0 0,0 0,0 0,0 0,0 0,0 0,0 0,0 0,0 0,0 0,0 0,0 0,0 0,0 0,0 0,0 0,0 0,0 0,0 0,0 1,0 1,0 0,0 0,0 0,0 0,0 0,0 0,0 0,0 0,0 0,0l3 0 0 -17 -1 0 -1 0 -1 0 0 0 -1 0 -36 0 0 12 -44 -12 0 0 0 17 0 0zm318 0l0 0c0,0 0,0 0,0 10,0 16,4 17,15 0,0 0,0 0,0 0,0 0,0 0,0 0,0 0,0 0,0l0 135 0 0 0 94c0,0 0,0 0,0 0,0 0,0 0,0 0,0 0,0 0,1 -1,10 -7,14 -17,14 0,0 0,0 0,0l0 0 0 17 0 0 177 0 0 0 22 0 0 -88 -46 12 0 45c0,10 -5,14 -19,14l-54 0c-14,0 -19,-4 -19,-14l0 -75 0 -8 0 -12 0 -12 0 -3c0,-10 5,-15 19,-15l39 0c12,0 15,9 15,19l0 5 18 0 0 -7 0 0 0 -50 0 0 0 -7 -18 0 0 5c0,9 -2,17 -12,19 0,0 0,0 0,0 -15,0 -49,0 -61,0l0 -90c0,-10 5,-14 19,-14l54 0c14,0 19,4 19,14l0 19 46 13 0 -63 -22 0 0 0 -134 0 0 12 -43 -12 0 0 0 17 0 0zm322 14c1,-10 6,-14 19,-14l0 0c0,0 0,0 0,0 0,0 0,0 0,0 0,0 0,0 0,0 0,0 0,0 0,0 0,0 0,0 0,0 0,0 0,0 0,0 0,0 0,0 0,0 0,0 0,0 0,0 0,0 0,0 0,0 0,0 0,0 0,0 0,0 0,0 0,0 0,0 0,0 0,0 0,0 0,0 0,0 0,0 0,0 0,0 0,0 0,0 0,0 0,0 0,0 0,0 0,0 0,0 0,0 0,0 0,0 0,0 0,0 0,0 0,0 1,0 1,0 1,0 0,0 0,0 0,0 0,0 0,0 0,0 0,0 0,0 0,0 0,0 0,0 0,0 0,0 0,0 0,0 0,0 0,0 0,0 0,0 0,0 0,0 0,0 0,0 0,0 0,0 0,0 0,0 0,0 0,0 0,0l26 0 0 0c11,0 20,2 30,6 24,11 41,35 41,63 0,29 -18,54 -44,65 -8,3 -16,5 -25,5l-28 0c-14,0 -19,-5 -20,-15l0 -3 0 -107 0 0zm-60 -14l1 0c0,0 0,0 0,0 9,0 16,4 17,15 0,0 0,0 0,0 0,0 0,0 0,0 0,0 0,0 0,0 0,76 0,152 0,228 -1,13 -9,16 -17,16l-1 0 0 17 1 0 76 0 1 0 0 -17 0 0c-9,0 -16,-3 -17,-16l0 -65 0 0 0 -23c22,0 40,0 70,0 0,0 0,0 0,0 0,0 0,0 0,0 0,0 0,0 0,0 0,0 0,0 0,0 1,0 1,0 1,0 0,0 0,0 0,0l0 0c49,0 89,-39 89,-86 0,-47 -40,-85 -89,-86l0 0c0,0 0,0 0,0 0,0 0,0 -1,0 0,0 0,0 0,0 -29,0 -58,0 -87,0l0 12 -43 -12 -1 0 0 17 0 0z"/>
   <path class="fil2" d="M121 687c-3,2 -7,3 -14,3 -13,0 -23,-9 -23,-23 0,-13 8,-24 23,-24 7,0 11,2 14,3l3 -8c-4,-2 -10,-4 -17,-4 -21,0 -35,14 -35,34 0,19 13,32 33,32 8,0 15,-3 18,-4l-2 -9zm64 -51l0 9 20 0 0 53 12 0 0 -53 20 0 0 -9 -52 0zm120 88l11 0 0 -34 1 0c4,6 11,10 20,10 15,0 30,-11 30,-34 0,-19 -12,-32 -28,-32 -11,0 -19,5 -23,13l-1 0 0 -11 -11 0c0,6 1,12 1,20l0 68zm11 -62c0,-1 1,-3 1,-4 2,-9 10,-15 18,-15 13,0 20,11 20,24 0,14 -8,24 -20,24 -9,0 -16,-6 -18,-14 0,-1 -1,-3 -1,-4l0 -11 0 0zm167 -2c0,-13 -4,-26 -25,-26 -8,0 -16,3 -21,6l2 7c5,-3 11,-4 18,-4 13,0 15,9 15,14l0 2c-26,-1 -40,8 -40,23 0,9 7,18 20,18 10,0 17,-5 20,-10l1 0 1 8 10 0c0,-4 -1,-9 -1,-15l0 -23zm-11 17c0,1 0,3 -1,4 -2,5 -7,10 -16,10 -6,0 -11,-3 -11,-11 0,-12 15,-14 28,-14l0 11 0 0zm79 -41l22 30 -24 32 14 0 9 -14c3,-4 5,-7 7,-11l0 0c3,4 5,8 7,11l10 14 13 0 -22 -32 22 -30 -13 0 -9 13c-2,3 -5,7 -7,10l0 0c-2,-3 -4,-6 -7,-10l-9 -13 -13 0zm153 64c15,0 32,-10 32,-34 0,-19 -13,-32 -32,-32 -18,0 -32,13 -32,34 0,19 14,32 31,32l1 0zm0 -9c-12,0 -20,-10 -20,-24 0,-12 6,-24 20,-24 14,0 20,13 20,24 0,14 -9,24 -20,24l0 0zm102 7c4,1 12,1 19,1 13,0 34,-2 34,-18 0,-9 -7,-14 -16,-16l0 0c7,-2 13,-6 13,-14 0,-14 -18,-16 -29,-16 -7,0 -16,1 -21,1l0 62 0 0zm12 -55c3,0 5,0 9,0 12,0 18,3 18,9 0,8 -9,10 -18,10l-9 0 0 -19 0 0zm0 26l8 0c12,0 21,2 21,11 0,10 -12,11 -20,11 -3,0 -6,0 -9,0l0 -22 0 0zm139 31c16,0 32,-10 32,-34 0,-19 -12,-32 -31,-32 -18,0 -33,13 -33,34 0,19 14,32 32,32l0 0zm0 -9c-11,0 -19,-10 -19,-24 0,-12 6,-24 20,-24 14,0 19,13 19,24 0,14 -8,24 -20,24l0 0zm103 -55l0 62 14 0c7,-11 14,-23 20,-32 4,-7 7,-12 11,-20l0 0c0,10 0,16 0,26l0 26 11 0 0 -62 -14 0 -20 32c-5,7 -7,12 -11,19l-1 0c1,-9 1,-15 1,-25l0 -26 -11 0zm10 -26c1,9 6,16 17,16 11,0 18,-5 18,-16l-8 0c-1,6 -3,10 -9,10 -6,0 -9,-4 -9,-10l-9 0 0 0zm194 77c-3,2 -7,3 -14,3 -13,0 -23,-9 -23,-23 0,-13 8,-24 23,-24 7,0 11,2 14,3l3 -8c-4,-2 -10,-4 -17,-4 -21,0 -35,14 -35,34 0,19 13,32 33,32 8,0 15,-3 18,-4l-2 -9zm99 13c15,0 32,-10 32,-34 0,-19 -12,-32 -31,-32 -18,0 -33,13 -33,34 0,19 14,32 32,32l0 0zm0 -9c-11,0 -19,-10 -19,-24 0,-12 6,-24 20,-24 14,0 19,13 19,24 0,14 -8,24 -20,24l0 0zm103 7c3,1 11,1 18,1 13,0 35,-2 35,-18 0,-9 -7,-14 -17,-16l0 0c8,-2 14,-6 14,-14 0,-14 -18,-16 -29,-16 -8,0 -17,1 -21,1l0 62 0 0zm11 -55c3,0 5,0 9,0 12,0 18,3 18,9 0,8 -9,10 -18,10l-9 0 0 -19 0 0zm0 26l9 0c11,0 21,2 21,11 0,10 -12,11 -20,11 -4,0 -7,0 -10,0l0 -22 0 0zm165 0c1,-1 1,-3 1,-5 0,-12 -6,-30 -27,-30 -19,0 -31,15 -31,34 0,19 12,32 32,32 10,0 18,-3 22,-4l-2 -9c-5,2 -10,4 -18,4 -12,0 -22,-7 -23,-22l46 0 0 0zm-46 -8c1,-8 7,-18 19,-18 13,0 16,11 16,18l-35 0zm108 -25l0 9 20 0 0 53 12 0 0 -53 20 0 0 -9 -52 0zm119 0l0 62 12 0 0 -28 31 0 0 28 12 0 0 -62 -12 0 0 25 -31 0 0 -25 -12 0zm130 0l0 62 14 0c6,-11 14,-23 20,-32 4,-7 7,-12 11,-20l0 0c0,10 -1,16 -1,26l0 26 12 0 0 -62 -14 0 -21 32c-4,7 -6,12 -10,19l-1 0c1,-9 1,-15 1,-25l0 -26 -11 0zm131 0l0 62 12 0 0 -27 2 0c11,0 17,4 22,14 2,6 4,11 6,13l12 0c-3,-5 -5,-11 -7,-15 -5,-11 -11,-18 -22,-19l29 -28 -15 0 -24 27 -3 0 0 -27 -12 0 0 0z"/>
   <path class="fil2" d="M2208 73l10 0 0 -65 22 0 0 -8 -54 0 0 8 22 0 0 65zm106 0l9 0 -5 -73 -12 0 -13 36c-3,9 -6,17 -8,24l0 0c-2,-7 -4,-15 -7,-24l-13 -36 -12 0 -5 73 9 0 2 -31c0,-11 1,-23 1,-33l0 0c3,9 5,19 9,29l12 35 7 0 13 -36c4,-10 7,-19 9,-28l1 0c-1,10 0,22 1,32l2 32z"/>
   <path class="fil2" d="M1018 495c-12,0 -21,9 -21,23 0,13 9,22 20,22 11,0 22,-7 22,-23 0,-13 -9,-22 -21,-22zm0 6c9,0 13,9 13,16 0,10 -6,17 -13,17 -8,0 -13,-7 -13,-16 0,-9 4,-17 13,-17zm60 31c-3,1 -5,2 -10,2 -8,0 -15,-6 -15,-16 0,-9 6,-17 15,-17 5,0 8,1 9,2l2 -6c-2,-1 -6,-2 -11,-2 -14,0 -23,10 -23,23 0,13 9,22 22,22 5,0 10,-2 12,-3l-1 -5 0 0zm10 -36l0 43 8 0 0 -19 20 0 0 19 8 0 0 -43 -8 0 0 17 -20 0 0 -17 -8 0zm52 44c3,0 5,-2 5,-6 0,-3 -2,-5 -5,-5 -3,0 -5,2 -5,5 0,4 2,6 5,6zm68 -1l0 -6 -26 0 0 -1 5 -4c12,-12 19,-20 19,-31 0,-8 -5,-17 -17,-17 -7,0 -13,3 -17,6l3 6c3,-2 7,-5 12,-5 9,0 12,5 12,11 0,9 -7,16 -22,30l-6 6 0 5 37 0 0 0zm28 -59c-12,0 -20,11 -20,30 0,19 8,30 19,30 13,0 20,-11 20,-30 0,-19 -7,-30 -19,-30zm-1 6c8,0 12,10 12,24 0,15 -4,24 -12,24 -7,0 -11,-9 -11,-24 0,-15 4,-24 11,-24zm46 -6c-12,0 -20,11 -20,30 0,19 8,30 19,30 13,0 20,-11 20,-30 0,-19 -7,-30 -19,-30zm0 6c8,0 11,10 11,24 0,15 -3,24 -11,24 -7,0 -12,-9 -12,-24 0,-15 5,-24 12,-24zm59 -5c-1,0 -3,0 -5,0 -8,1 -14,4 -19,8 -6,6 -10,15 -10,26 0,15 8,25 21,25 12,0 19,-10 19,-20 0,-12 -7,-19 -17,-19 -7,0 -12,3 -14,7l-1 0c2,-10 8,-19 20,-21 3,0 5,0 6,0l0 -6 0 0zm-13 53c-8,0 -13,-7 -13,-17 0,-1 0,-2 1,-3 2,-4 6,-7 11,-7 7,0 12,5 12,13 0,8 -4,14 -11,14l0 0zm28 -38l0 43 8 0 0 -37 18 0 0 -6 -26 0zm31 44c3,0 5,-2 5,-6 0,-3 -2,-5 -5,-5 -3,0 -5,2 -5,5 0,4 2,6 5,6z"/>
  </g>
 </g>
</svg>
