<svg width="20" height="20" viewBox="0 0 20 20" fill="none" xmlns="http://www.w3.org/2000/svg">
<g clip-path="url(#clip0)">
<path d="M18.3334 6.66743H18.1019L15.2393 1.66849C15.0179 1.28197 14.6606 1.00529 14.2318 0.89052C14.0722 0.848098 13.9101 0.828997 13.7497 0.834388C13.4807 0.843411 13.2165 0.919661 12.9769 1.05857L0.826033 8.13224C0.294861 8.44169 -0.00260006 9.00564 1.71252e-05 9.58396C0.00130619 9.86329 0.0732202 10.1464 0.221384 10.4051L2.50002 14.3846V17.5003C2.50002 18.4194 3.24791 19.1669 4.1667 19.1669H18.3334C19.2522 19.1669 20.0001 18.4195 20.0001 17.5003V8.33404C20 7.4149 19.2522 6.66743 18.3334 6.66743ZM2.50002 8.33353V12.708L0.944041 9.9904C0.716189 9.59204 0.851267 9.08138 1.24595 8.85189L2.52275 8.10857C2.5126 8.18286 2.50002 8.2565 2.50002 8.33353ZM13.3969 1.77876C13.5856 1.6681 13.8054 1.63837 14.0161 1.69536C14.2286 1.75232 14.406 1.88986 14.5167 2.08271L17.142 6.66743H4.99924L13.3969 1.77876ZM19.1667 17.5002C19.1667 17.9595 18.7931 18.3335 18.3334 18.3335H4.1667C3.70689 18.3335 3.33338 17.9595 3.33338 17.5002V8.33353C3.33338 7.87415 3.70693 7.50021 4.1667 7.50021H18.3334C18.7932 7.50021 19.1667 7.87415 19.1667 8.33353V17.5002Z" fill="white"/>
<path d="M17.9167 14.1665H12.9167C12.6864 14.1665 12.5 14.3529 12.5 14.5832C12.5 14.8135 12.6864 14.9999 12.9167 14.9999H17.9167C18.147 14.9999 18.3334 14.8135 18.3334 14.5832C18.3334 14.3529 18.147 14.1665 17.9167 14.1665Z" fill="white"/>
<path d="M17.9169 11.6665H11.2502C11.0199 11.6665 10.8335 11.8529 10.8335 12.0832C10.8335 12.3135 11.0199 12.4999 11.2502 12.4999H17.9169C18.1472 12.4999 18.3335 12.3135 18.3335 12.0832C18.3335 11.8529 18.1472 11.6665 17.9169 11.6665Z" fill="white"/>
<path d="M7.50018 13.3334C8.41897 13.3334 9.16686 12.5859 9.16686 11.6667C9.16686 10.7475 8.41897 10 7.50018 10C6.58139 10 5.8335 10.7475 5.8335 11.6667C5.8335 12.5859 6.58143 13.3334 7.50018 13.3334ZM7.50018 10.8334C7.95998 10.8334 8.3335 11.2073 8.3335 11.6667C8.3335 12.1261 7.95994 12.5 7.50018 12.5C7.04037 12.5 6.66686 12.1261 6.66686 11.6667C6.66686 11.2073 7.04041 10.8334 7.50018 10.8334Z" fill="white"/>
<path d="M9.98928 14.364C9.40658 14.0841 8.50244 13.75 7.49982 13.75C6.49721 13.75 5.59307 14.0841 5.01041 14.364C4.48959 14.6147 4.1665 15.1148 4.1665 15.6689V15.8594C4.1665 16.3045 4.54006 16.6667 4.99982 16.6667H9.99982C10.4596 16.6667 10.8331 16.3045 10.8331 15.8594V15.6689C10.8332 15.1148 10.5101 14.6147 9.98928 14.364ZM9.99982 15.8334L4.99982 15.8594V15.6689C4.99982 15.4378 5.14225 15.2254 5.37174 15.1152C5.87631 14.8727 6.65428 14.5833 7.49982 14.5833C8.34537 14.5833 9.12338 14.8726 9.62791 15.1152C9.8574 15.2254 9.99982 15.4378 9.99982 15.6689V15.8334Z" fill="white"/>
</g>
<defs>
<clipPath id="clip0">
<rect width="20" height="20" fill="white"/>
</clipPath>
</defs>
</svg>
