<svg width="20" height="20" viewBox="0 0 20 20" fill="none" xmlns="http://www.w3.org/2000/svg">
<g clip-path="url(#clip0)">
<path d="M5.0705 6.77914H3.03665C2.84943 6.77914 2.69775 6.93082 2.69775 7.11804V9.15189C2.69775 9.33911 2.84943 9.49078 3.03665 9.49078H5.0705C5.25772 9.49078 5.40939 9.33911 5.40939 9.15189V7.11804C5.40939 6.93082 5.25772 6.77914 5.0705 6.77914ZM4.73145 8.81284H3.3757V7.45709H4.73145V8.81284Z" fill="white"/>
<path d="M10.3727 6.7793H8.3389C8.15182 6.7793 8 6.93097 8 7.11819V9.15204C8 9.33926 8.15182 9.49094 8.3389 9.49094H10.3727C10.56 9.49094 10.7118 9.33926 10.7118 9.15204V7.11819C10.7118 6.93097 10.56 6.7793 10.3727 6.7793ZM10.0338 8.81299H8.67795V7.45724H10.0338V8.81299Z" fill="white"/>
<path d="M13.2056 9.49078H15.2394C15.4267 9.49078 15.5783 9.33911 15.5783 9.15189V7.11804C15.5783 6.93082 15.4267 6.77914 15.2394 6.77914H13.2056C13.0184 6.77914 12.8667 6.93082 12.8667 7.11804V9.15189C12.8667 9.33911 13.0184 9.49078 13.2056 9.49078ZM13.5446 7.45709H14.9004V8.81284H13.5446V7.45709Z" fill="white"/>
<path d="M5.0705 10.1689H3.03665C2.84943 10.1689 2.69775 10.3207 2.69775 10.5079V12.5416C2.69775 12.7288 2.84943 12.8807 3.03665 12.8807H5.0705C5.25772 12.8807 5.40939 12.7288 5.40939 12.5416V10.5079C5.40939 10.3207 5.25772 10.1689 5.0705 10.1689ZM4.73145 12.2027H3.3757V10.8468H4.73145V12.2027Z" fill="white"/>
<path d="M10.3727 10.1689H8.3389C8.15182 10.1689 8 10.3208 8 10.508V12.5417C8 12.7289 8.15182 12.8807 8.3389 12.8807H10.3727C10.56 12.8807 10.7118 12.7289 10.7118 12.5417V10.508C10.7118 10.3208 10.56 10.1689 10.3727 10.1689ZM10.0338 12.2028H8.67795V10.8469H10.0338V12.2028Z" fill="white"/>
<path d="M13.2056 12.8807H15.2394C15.4267 12.8807 15.5783 12.7288 15.5783 12.5416V10.5079C15.5783 10.3207 15.4267 10.1689 15.2394 10.1689H13.2056C13.0184 10.1689 12.8667 10.3207 12.8667 10.5079V12.5416C12.8667 12.7288 13.0184 12.8807 13.2056 12.8807ZM13.5446 10.8468H14.9004V12.2027H13.5446V10.8468Z" fill="white"/>
<path d="M5.0705 13.5587H3.03665C2.84943 13.5587 2.69775 13.7103 2.69775 13.8976V15.9314C2.69775 16.1186 2.84943 16.2703 3.03665 16.2703H5.0705C5.25772 16.2703 5.40939 16.1186 5.40939 15.9314V13.8976C5.40939 13.7103 5.25772 13.5587 5.0705 13.5587ZM4.73145 15.5923H3.3757V14.2365H4.73145V15.5923Z" fill="white"/>
<path d="M10.3727 13.5586H8.3389C8.15182 13.5586 8 13.7103 8 13.8975V15.9313C8 16.1186 8.15182 16.2702 8.3389 16.2702H10.3727C10.56 16.2702 10.7118 16.1186 10.7118 15.9313V13.8975C10.7118 13.7103 10.56 13.5586 10.3727 13.5586ZM10.0338 15.5923H8.67795V14.2364H10.0338V15.5923Z" fill="white"/>
<path d="M17.6123 13.6783V1.69479C17.6123 1.50757 17.4605 1.3559 17.2733 1.3559H15.5785V1.01685C15.5785 0.455322 15.1233 0 14.5616 0C13.9999 0 13.5448 0.455322 13.5448 1.01685V1.3559H12.8668V1.01685C12.8668 0.455322 12.4115 0 11.85 0C11.2883 0 10.833 0.455322 10.833 1.01685V1.3559H10.155V1.01685C10.155 0.455322 9.69986 0 9.13818 0C8.57651 0 8.12134 0.455322 8.12134 1.01685V1.3559H7.44339V1.01685C7.44339 0.455322 6.98807 0 6.42639 0C5.86487 0 5.40955 0.455322 5.40955 1.01685V1.3559H4.7316V1.01685C4.7316 0.455322 4.27643 0 3.71475 0C3.15308 0 2.69791 0.455322 2.69791 1.01685V1.3559H1.00296C0.815887 1.3559 0.664062 1.50757 0.664062 1.69479V17.9651C0.664062 18.1523 0.815887 18.3041 1.00296 18.3041H12.9865C13.9207 19.9246 15.9918 20.481 17.6123 19.5468C19.2328 18.6125 19.7891 16.5414 18.855 14.921C18.5573 14.4046 18.1287 13.976 17.6123 13.6783ZM14.2227 1.01685C14.2227 0.82962 14.3744 0.677948 14.5616 0.677948C14.7488 0.677948 14.9005 0.82962 14.9005 1.01685V2.37274C14.9005 2.55997 14.7488 2.71179 14.5616 2.71179C14.3744 2.71179 14.2227 2.55997 14.2227 2.37274V1.01685ZM11.5109 1.01685C11.5109 0.82962 11.6628 0.677948 11.85 0.677948C12.037 0.677948 12.1889 0.82962 12.1889 1.01685V2.37274C12.1889 2.55997 12.037 2.71179 11.85 2.71179C11.6628 2.71179 11.5109 2.55997 11.5109 2.37274V1.01685ZM8.79929 1.01685C8.79929 0.82962 8.95096 0.677948 9.13818 0.677948C9.32541 0.677948 9.47708 0.82962 9.47708 1.01685V2.37274C9.47708 2.55997 9.32541 2.71179 9.13818 2.71179C8.95096 2.71179 8.79929 2.55997 8.79929 2.37274V1.01685ZM6.08749 1.01685C6.08749 0.82962 6.23932 0.677948 6.42639 0.677948C6.61362 0.677948 6.76544 0.82962 6.76544 1.01685V2.37274C6.76544 2.55997 6.61362 2.71179 6.42639 2.71179C6.23932 2.71179 6.08749 2.55997 6.08749 2.37274V1.01685ZM3.37585 1.01685C3.37585 0.82962 3.52753 0.677948 3.71475 0.677948C3.90198 0.677948 4.05365 0.82962 4.05365 1.01685V2.37274C4.05365 2.55997 3.90198 2.71179 3.71475 2.71179C3.52753 2.71179 3.37585 2.55997 3.37585 2.37274V1.01685ZM1.34201 2.03384H2.69791V2.37274C2.69791 2.93442 3.15308 3.38959 3.71475 3.38959C4.27643 3.38959 4.7316 2.93442 4.7316 2.37274V2.03384H5.40955V2.37274C5.40955 2.93442 5.86487 3.38959 6.42639 3.38959C6.98807 3.38959 7.44339 2.93442 7.44339 2.37274V2.03384H8.12134V2.37274C8.12134 2.93442 8.57651 3.38959 9.13818 3.38959C9.69986 3.38959 10.155 2.93442 10.155 2.37274V2.03384H10.833V2.37274C10.833 2.93442 11.2883 3.38959 11.85 3.38959C12.4115 3.38959 12.8668 2.93442 12.8668 2.37274V2.03384H13.5448V2.37274C13.5448 2.93442 14.0001 3.38959 14.5616 3.38959C15.1233 3.38959 15.5786 2.93442 15.5786 2.37274V2.03384H16.9344V4.74548H1.34201V2.03384ZM1.34201 17.6262V5.42343H16.9344V13.3759C15.1485 12.8143 13.2455 13.8069 12.684 15.5928C12.476 16.2546 12.476 16.9644 12.684 17.6262H1.34201ZM15.9175 19.321C14.4199 19.321 13.2057 18.107 13.2057 16.6093C13.2057 15.1117 14.4199 13.8976 15.9175 13.8976C17.4152 13.8976 18.6292 15.1117 18.6292 16.6093C18.6275 18.1062 17.4144 19.3193 15.9175 19.321Z" fill="white"/>
<path d="M17.0612 15.3277L15.6037 16.4944L14.8013 15.6917C14.6689 15.5594 14.4542 15.5594 14.3219 15.6919C14.1895 15.8243 14.1896 16.039 14.3221 16.1713L15.3389 17.1883C15.461 17.3105 15.6555 17.3212 15.7904 17.2133L17.4852 15.8575C17.6315 15.7406 17.6553 15.5271 17.5383 15.3808C17.4213 15.2344 17.2078 15.2106 17.0615 15.3277H17.0612Z" fill="white"/>
</g>
<defs>
<clipPath id="clip0">
<rect width="20" height="20" fill="white"/>
</clipPath>
</defs>
</svg>
