<svg width="20" height="20" viewBox="0 0 20 20" fill="none" xmlns="http://www.w3.org/2000/svg">
<g clip-path="url(#clip0)">
<path d="M10 0C11.1046 0 12 0.895417 12 2C12 3.10458 11.1046 4 10 4C8.89587 3.99892 8.00108 3.10413 8 2C8 0.895417 8.89542 0 10 0ZM10 3.33333C10.7364 3.33333 11.3333 2.73638 11.3333 2C11.3333 1.26363 10.7364 0.666667 10 0.666667C9.26362 0.666667 8.66667 1.26363 8.66667 2C8.66667 2.73638 9.26362 3.33333 10 3.33333Z" fill="white"/>
<path d="M8.66667 4.33339H8.74533L8.81567 4.36839C9.56154 4.73976 10.4385 4.73976 11.1843 4.36839L11.2547 4.33339H11.3333C12.2533 4.33447 12.9989 5.08006 13 6.00006V8.00006C13 8.55235 12.5523 9.00006 12 9.00006H8C7.44771 9.00006 7 8.55235 7 8.00006V6.00006C7.00108 5.08006 7.74667 4.33447 8.66667 4.33339ZM7.66667 8.00006C7.66667 8.18414 7.81592 8.33339 8 8.33339H12C12.1841 8.33339 12.3333 8.18414 12.3333 8.00006V6.00006C12.3333 5.47539 11.9277 5.03997 11.4043 5.00272C10.5137 5.41606 9.48625 5.41606 8.59567 5.00272C8.07233 5.03997 7.66675 5.47539 7.66667 6.00006V8.00006Z" fill="white"/>
<path d="M3 11.0001C4.10458 11.0001 5 11.8955 5 13.0001C5 14.1046 4.10458 15.0001 3 15.0001C1.89542 15.0001 1 14.1046 1 13.0001C1.00108 11.8959 1.89587 11.0011 3 11.0001ZM3 14.3334C3.73637 14.3334 4.33333 13.7364 4.33333 13.0001C4.33333 12.2637 3.73637 11.6667 3 11.6667C2.26362 11.6667 1.66667 12.2637 1.66667 13.0001C1.66667 13.7364 2.26362 14.3334 3 14.3334Z" fill="white"/>
<path d="M1.66667 15.3335H1.74533L1.81567 15.3668C2.56154 15.7381 3.43846 15.7381 4.18433 15.3668L4.25467 15.3335H4.33333C5.25333 15.3345 5.99892 16.0801 6 17.0001V19.0001C6 19.5524 5.55229 20.0001 5 20.0001H1C0.447708 20.0001 0 19.5524 0 19.0001V17.0001C0.00108337 16.0801 0.746666 15.3345 1.66667 15.3335ZM0.666667 19.0001C0.666667 19.1842 0.815917 19.3335 1 19.3335H5C5.18408 19.3335 5.33333 19.1842 5.33333 19.0001V17.0001C5.33325 16.4755 4.92771 16.04 4.40433 16.0028C3.51371 16.4161 2.48629 16.4161 1.59567 16.0028C1.07229 16.04 0.66675 16.4755 0.666667 17.0001V19.0001Z" fill="white"/>
<path d="M17 11.0001C18.1046 11.0001 19 11.8955 19 13.0001C19 14.1046 18.1046 15.0001 17 15.0001C15.8954 15.0001 15 14.1046 15 13.0001C15.0011 11.8959 15.8959 11.0011 17 11.0001ZM17 14.3334C17.7364 14.3334 18.3333 13.7364 18.3333 13.0001C18.3333 12.2637 17.7364 11.6667 17 11.6667C16.2636 11.6667 15.6667 12.2637 15.6667 13.0001C15.6667 13.7364 16.2636 14.3334 17 14.3334Z" fill="white"/>
<path d="M15.6667 15.3335H15.7453L15.8157 15.3668C16.5615 15.7381 17.4385 15.7381 18.1843 15.3668L18.2547 15.3335H18.3333C19.2533 15.3345 19.9989 16.0801 20 17.0001V19.0001C20 19.5524 19.5523 20.0001 19 20.0001H15C14.4477 20.0001 14 19.5524 14 19.0001V17.0001C14.0011 16.0801 14.7467 15.3345 15.6667 15.3335ZM14.6667 19.0001C14.6667 19.1842 14.8159 19.3335 15 19.3335H19C19.1841 19.3335 19.3333 19.1842 19.3333 19.0001V17.0001C19.3332 16.4755 18.9277 16.04 18.4043 16.0028C17.5137 16.4161 16.4863 16.4161 15.5957 16.0028C15.0723 16.04 14.6667 16.4755 14.6667 17.0001V19.0001Z" fill="white"/>
<path d="M6.6929 16.9282C6.69306 16.9279 6.69323 16.9275 6.6934 16.9271C6.76556 16.7577 6.96136 16.6789 7.13069 16.7511C8.6359 17.3819 10.3076 17.497 11.885 17.0784L11.573 16.9867C11.3963 16.935 11.2949 16.7498 11.3467 16.5731C11.3984 16.3963 11.5836 16.295 11.7604 16.3467L13.0937 16.7377C13.0987 16.7377 13.1024 16.7434 13.107 16.7451C13.1379 16.7566 13.1669 16.7727 13.193 16.7927C13.2046 16.799 13.2157 16.806 13.2264 16.8137C13.2615 16.8451 13.2894 16.8838 13.308 16.9271C13.3261 16.9707 13.3347 17.0176 13.3334 17.0647C13.3252 17.1099 13.3141 17.1544 13.3 17.1981C13.298 17.2027 13.3 17.2081 13.2964 17.2127L12.6297 18.4884C12.5444 18.6517 12.343 18.715 12.1797 18.6297C12.0164 18.5445 11.9531 18.343 12.0384 18.1797L12.3097 17.6611C10.5174 18.1998 8.59323 18.0951 6.87002 17.3651C6.70052 17.2934 6.62119 17.0978 6.6929 16.9282Z" fill="white"/>
<path d="M1.09773 8.76437C1.2279 8.63424 1.4389 8.63424 1.56907 8.76437L2.04073 9.23603C2.31673 6.31645 4.17036 3.78287 6.8694 2.63603C7.03877 2.56387 7.23456 2.64266 7.30673 2.81203C7.3789 2.98141 7.30011 3.1772 7.13073 3.24937C4.70948 4.27841 3.0264 6.52724 2.72173 9.14037L3.09773 8.76437C3.23015 8.63645 3.44115 8.64012 3.56907 8.77253C3.69382 8.9017 3.69382 9.10649 3.56907 9.2357L2.56907 10.2357C2.43907 10.366 2.22798 10.3663 2.09765 10.2363C2.09744 10.2361 2.09723 10.2359 2.09707 10.2357L1.09707 9.2357C0.967109 9.10537 0.9674 8.89437 1.09773 8.76437Z" fill="white"/>
<path d="M12.6763 2.8865C12.6774 2.86704 12.6803 2.84775 12.685 2.82883C12.685 2.82583 12.6887 2.82383 12.69 2.8205C12.6913 2.81717 12.69 2.81483 12.69 2.81217C12.6991 2.79596 12.7096 2.78054 12.7213 2.76617C12.7321 2.74662 12.7449 2.72821 12.7593 2.71117C12.779 2.69371 12.8009 2.67883 12.8243 2.66683C12.836 2.65687 12.8485 2.64783 12.8617 2.63983L14.195 2.03083C14.3653 1.96091 14.56 2.04229 14.63 2.21258C14.6961 2.37362 14.6271 2.55846 14.4717 2.63683L13.7813 2.9525C16.3802 4.34338 18.0019 7.0525 18 10.0002C18 10.1843 17.8507 10.3335 17.6667 10.3335C17.4826 10.3335 17.3333 10.1843 17.3333 10.0002C17.335 7.40463 15.9625 5.00217 13.7257 3.6855L13.9667 4.18917C14.0461 4.35488 13.9765 4.55363 13.811 4.6335C13.766 4.65546 13.7167 4.66688 13.6667 4.66683C13.5387 4.66667 13.4221 4.59321 13.3667 4.47783L12.7 3.08683C12.7 3.0835 12.7 3.07983 12.6973 3.0765C12.6887 3.05371 12.6826 3.03 12.6793 3.00583C12.6736 2.98787 12.6694 2.9695 12.6667 2.95083C12.6678 2.92912 12.671 2.90758 12.6763 2.8865Z" fill="white"/>
</g>
<defs>
<clipPath id="clip0">
<rect width="20" height="20" fill="white" transform="matrix(-1 0 0 1 20 0)"/>
</clipPath>
</defs>
</svg>
