<svg width="16" height="16" viewBox="0 0 16 16" fill="none" xmlns="http://www.w3.org/2000/svg">
<path fill-rule="evenodd" clip-rule="evenodd" d="M14.5763 0.328625C14.5807 0.243344 14.5507 0.156625 14.4856 0.0915C14.4204 0.026375 14.3337 -0.00365625 14.2484 0.00075L14.2429 0.000422637L14.2429 0.000422542C14.2397 0.000211494 14.2365 0 14.2333 0H12.3427C12.1701 0 12.0302 0.139906 12.0302 0.3125C12.0302 0.485094 12.1701 0.625 12.3427 0.625H13.5101L10.4208 3.71431L9.2558 2.54931C9.19721 2.49072 9.11771 2.45778 9.03483 2.45778C8.95196 2.45778 8.87246 2.49072 8.81387 2.54931L3.19608 8.16712C3.07405 8.28916 3.07405 8.48703 3.19608 8.60909C3.25712 8.67006 3.33708 8.70056 3.41705 8.70056C3.49702 8.70056 3.57702 8.67006 3.63802 8.60903L9.03483 3.21219L10.1998 4.37719C10.3219 4.49922 10.5197 4.49922 10.6418 4.37719L13.9521 1.06697V2.12353C13.9521 2.29613 14.092 2.43603 14.2646 2.43603C14.4371 2.43603 14.5771 2.29613 14.5771 2.12353V0.34375C14.5771 0.340555 14.5768 0.33741 14.5766 0.33426V0.334245L14.5763 0.328625ZM15.2622 15.3749H14.5768V5.42285C14.5768 4.95963 14.2 4.58279 13.7368 4.58279H12.2048C11.7416 4.58279 11.3647 4.95966 11.3647 5.42285V15.3749H9.62433V9.93188C9.62433 9.46866 9.24749 9.09182 8.78427 9.09182H7.25227C6.78905 9.09182 6.41221 9.4687 6.41221 9.93188V15.3749H4.67184V12.556C4.67184 12.0928 4.29496 11.7159 3.83177 11.7159H2.29974C1.83652 11.7159 1.45968 12.0928 1.45968 12.556V15.3749H0.737304C0.56471 15.3749 0.424805 15.5148 0.424805 15.6874C0.424805 15.8599 0.56471 15.9999 0.737304 15.9999H15.2622C15.4348 15.9999 15.5747 15.8599 15.5747 15.6874C15.5747 15.5148 15.4348 15.3749 15.2622 15.3749ZM4.04677 15.3749H2.08465V12.556C2.08465 12.4374 2.18112 12.3409 2.29971 12.3409H3.83171C3.9503 12.3409 4.04677 12.4374 4.04677 12.556V15.3749ZM8.9993 15.3749H7.03718V9.93188C7.03718 9.81329 7.13365 9.71682 7.25224 9.71682H8.78424C8.9028 9.71682 8.9993 9.81329 8.9993 9.93188V15.3749ZM13.9518 15.3749H11.9897V5.42285C11.9897 5.30426 12.0862 5.20779 12.2048 5.20779H13.7368C13.8554 5.20779 13.9518 5.30426 13.9518 5.42285V15.3749ZM2.67608 9.47881C2.67608 9.65139 2.53617 9.79131 2.36358 9.79131C2.19099 9.79131 2.05108 9.65139 2.05108 9.47881C2.05108 9.30622 2.19099 9.16631 2.36358 9.16631C2.53617 9.16631 2.67608 9.30622 2.67608 9.47881Z" fill="white"/>
</svg>
