<svg width="19" height="14" viewBox="0 0 19 14" fill="none" xmlns="http://www.w3.org/2000/svg">
<path fill-rule="evenodd" clip-rule="evenodd" d="M12.2616 5.54996C11.8437 5.68837 8.15706 6.93721 7.34765 7.85687C7.13415 8.09761 6.97168 8.37911 6.87002 8.68438C6.76837 8.98965 6.72965 9.31236 6.7562 9.633C6.78276 9.95365 6.87404 10.2656 7.02453 10.55C7.17502 10.8344 7.38161 11.0853 7.6318 11.2877C8.14396 11.7065 8.79797 11.9117 9.45766 11.8605C10.1174 11.8094 10.7319 11.5058 11.1733 11.0129C11.9827 10.0917 12.6677 6.36852 12.7428 5.94654C12.7535 5.88526 12.7477 5.82225 12.726 5.76396C12.7043 5.70566 12.6676 5.65417 12.6194 5.61476C12.5702 5.57446 12.5115 5.54735 12.4489 5.53601C12.3863 5.52467 12.3219 5.52948 12.2616 5.54996ZM10.6138 10.5521C10.2948 10.89 9.86136 11.097 9.39799 11.1329C8.93462 11.1687 8.47449 11.0308 8.10728 10.7459C7.93037 10.6021 7.78431 10.4241 7.67784 10.2225C7.57137 10.0209 7.50667 9.79996 7.48765 9.57279C7.46871 9.34632 7.49605 9.11837 7.56799 8.90279C7.63992 8.68721 7.75495 8.48851 7.9061 8.31877C8.36084 7.80036 10.3639 6.97402 11.9039 6.42762C11.5964 7.95692 11.0634 10.0409 10.6138 10.5521ZM9.55603 0.000416393C7.23977 -0.0169985 5.01113 0.884573 3.35873 2.50746C1.70633 4.13035 0.765031 6.34211 0.741211 8.6578C0.757205 10.5278 1.36389 12.345 2.47461 13.8496C2.50901 13.8966 2.55408 13.9347 2.60609 13.9608C2.65811 13.987 2.7156 14.0004 2.77381 14H16.3377C16.396 14.0005 16.4536 13.9871 16.5057 13.961C16.5578 13.9348 16.603 13.8967 16.6374 13.8496C17.7524 12.332 18.3591 10.5009 18.3708 8.61789C18.3416 6.30754 17.3973 4.10306 15.7449 2.48769C14.0925 0.872314 11.8669 -0.0221372 9.55603 0.000416393ZM16.1459 13.2908H2.96617C2.01013 11.9347 1.49029 10.3194 1.47595 8.6604C1.51175 6.54501 2.37603 4.52805 3.8831 3.04283C5.39017 1.55761 7.4198 0.722622 9.53594 0.71726C11.6521 0.711897 13.6859 1.53658 15.2005 3.01414C16.7151 4.49171 17.5896 6.50426 17.6361 8.61945C17.6256 10.2911 17.1058 11.9199 16.1459 13.2887V13.2908ZM9.55603 2.04553C7.93268 2.02963 6.36931 2.65812 5.20886 3.79315C4.04841 4.92817 3.38565 6.47705 3.36596 8.1C3.36596 8.19734 3.40463 8.2907 3.47348 8.35953C3.54233 8.42836 3.63569 8.46703 3.73306 8.46703C3.83042 8.46703 3.9238 8.42836 3.99265 8.35953C4.0615 8.2907 4.10017 8.19734 4.10017 8.1C4.13152 6.67575 4.71879 5.32025 5.73646 4.32314C6.75414 3.32603 8.12151 2.7664 9.5464 2.76382C10.9713 2.76125 12.3407 3.31595 13.362 4.30938C14.3832 5.30281 14.9754 6.65618 15.0119 8.0803C15.0119 8.17764 15.0506 8.271 15.1194 8.33983C15.1882 8.40866 15.2816 8.44734 15.379 8.44734C15.4764 8.44734 15.5697 8.40866 15.6386 8.33983C15.7074 8.271 15.7461 8.17764 15.7461 8.0803C15.7237 6.46 15.0594 4.91473 13.899 3.78342C12.7386 2.65211 11.1767 2.02712 9.55603 2.04553Z" fill="white"/>
</svg>
