<svg width="16" height="16" viewBox="0 0 16 16" fill="none" xmlns="http://www.w3.org/2000/svg">
<path d="M13.5998 1.60001H12.7998V0H11.1998V1.60001H4.79981V0H3.1998V1.60001H2.39982C1.51583 1.60001 0.80783 2.316 0.80783 3.20002L0.799805 14.4C0.799805 15.284 1.51579 16 2.39982 16H13.5998C14.4838 16 15.1998 15.284 15.1998 14.4V3.19999C15.1998 2.316 14.4838 1.60001 13.5998 1.60001ZM13.5998 14.4H2.39982V5.59998H13.5998V14.4Z" fill="#303030"/>
<path d="M11.6241 8.04769L10.7761 7.19971L6.87212 11.1037L5.17615 9.40771L4.32812 10.2557L6.87212 12.7997L11.6241 8.04769Z" fill="#303030"/>
</svg>
