<svg width="20" height="20" viewBox="0 0 20 20" fill="none" xmlns="http://www.w3.org/2000/svg">
<path d="M3.33332 13.3333C2.87395 13.3333 2.5 13.7072 2.5 14.1666C2.5 14.626 2.87395 15 3.33332 15C3.7927 15 4.16664 14.626 4.16664 14.1666C4.16664 13.7073 3.79273 13.3333 3.33332 13.3333Z" fill="white"/>
<path d="M7.49982 2.5C7.04045 2.5 6.6665 2.87395 6.6665 3.33332C6.6665 3.7927 7.04045 4.16664 7.49982 4.16664C7.9592 4.16664 8.33314 3.7927 8.33314 3.33332C8.33314 2.87395 7.9592 2.5 7.49982 2.5Z" fill="white"/>
<path d="M16.6668 4.16675C14.8288 4.16675 13.3335 5.6621 13.3335 7.50007C13.3335 8.7421 14.7648 10.9708 15.6601 12.2442C15.6064 12.285 15.5589 12.3341 15.5291 12.3996C15.4388 12.5978 15.5169 12.8297 15.7029 12.9347C15.521 13.0466 15.4514 13.281 15.5487 13.4759C15.6219 13.6219 15.7688 13.7062 15.9218 13.7062C15.9844 13.7062 16.0479 13.6919 16.1077 13.6622L16.8512 13.2905L16.8514 13.2904L16.8532 13.2895C16.8556 13.2883 16.8565 13.2855 16.8589 13.2842C16.9119 13.2565 16.9602 13.2191 16.9976 13.1703C17.3048 12.769 20.0001 9.20296 20.0001 7.50007C20.0001 5.6621 18.5048 4.16675 16.6668 4.16675ZM16.6668 12.2193C15.7509 10.9592 14.1668 8.56089 14.1668 7.50007C14.1668 6.12147 15.2882 5.00007 16.6668 5.00007C18.0454 5.00007 19.1668 6.12147 19.1668 7.50007C19.1668 8.56085 17.5828 10.9591 16.6668 12.2193Z" fill="white"/>
<path d="M16.6668 6.66675C16.2074 6.66675 15.8335 7.04069 15.8335 7.50007C15.8335 7.95944 16.2074 8.33339 16.6668 8.33339C17.1262 8.33339 17.5001 7.95944 17.5001 7.50007C17.5001 7.04069 17.1262 6.66675 16.6668 6.66675Z" fill="white"/>
<path d="M4.3509 18.8954C5.24684 17.6194 6.66668 15.4039 6.66668 14.1668C6.66668 12.3288 5.17133 10.8335 3.33336 10.8335C1.49535 10.8334 0 12.3288 0 14.1668C0 15.8697 2.69531 19.4357 3.00254 19.8369C3.02473 19.8659 3.0566 19.8827 3.08484 19.9045C3.10184 19.9176 3.11445 19.9338 3.13305 19.9441C3.19418 19.9781 3.26141 20.0001 3.33336 20.0001L3.33355 20.0001L3.33375 20.0001C3.34332 20.0001 3.3525 19.994 3.36207 19.9934C3.41668 19.9894 3.47066 19.9803 3.51871 19.9564C3.51902 19.9562 3.51937 19.9563 3.51969 19.9561L4.26512 19.5834C4.47102 19.4805 4.55441 19.2302 4.45148 19.0243C4.42605 18.9734 4.39137 18.9303 4.3509 18.8954ZM3.33332 18.886C2.41738 17.6258 0.83332 15.2276 0.83332 14.1667C0.83332 12.7882 1.95473 11.6667 3.33332 11.6667C4.71191 11.6667 5.83332 12.7882 5.83332 14.1667C5.83332 15.2276 4.24926 17.6258 3.33332 18.886Z" fill="white"/>
<path d="M14.4194 13.5743L13.1035 14.2323C12.8976 14.3352 12.8142 14.5855 12.9171 14.7914C12.9904 14.9375 13.1373 15.0217 13.2903 15.0217C13.3529 15.0217 13.4164 15.0074 13.4762 14.9778L14.7921 14.3198C14.998 14.2169 15.0814 13.9666 14.9785 13.7607C14.8756 13.5552 14.625 13.4726 14.4194 13.5743Z" fill="white"/>
<path d="M6.52443 17.5219L5.20849 18.1799C5.00259 18.2828 4.91919 18.5331 5.02212 18.739C5.09536 18.8851 5.24224 18.9693 5.39525 18.9693C5.4579 18.9693 5.52138 18.955 5.58118 18.9254L6.89712 18.2674C7.10302 18.1645 7.18642 17.9142 7.08349 17.7083C6.98017 17.5024 6.7299 17.4202 6.52443 17.5219Z" fill="white"/>
<path d="M11.7876 14.8901L10.4717 15.5481C10.2658 15.651 10.1824 15.9013 10.2853 16.1072C10.3585 16.2533 10.5054 16.3375 10.6584 16.3375C10.7211 16.3375 10.7846 16.3233 10.8444 16.2936L12.1603 15.6356C12.3662 15.5327 12.4496 15.2824 12.3467 15.0765C12.2433 14.8706 11.9935 14.7876 11.7876 14.8901Z" fill="white"/>
<path d="M9.15583 16.206L7.84033 16.864C7.63443 16.9669 7.55103 17.2172 7.65396 17.4231C7.7272 17.5692 7.87408 17.6534 8.02708 17.6534C8.08974 17.6534 8.15322 17.6391 8.21302 17.6095L9.52853 16.9515C9.73443 16.8486 9.81782 16.5983 9.71489 16.3924C9.61157 16.1865 9.36091 16.1039 9.15583 16.206Z" fill="white"/>
<path d="M9.40957 9.61778C9.31433 9.82735 9.40672 10.0743 9.61629 10.1695L11.1458 10.8649C11.202 10.8906 11.2606 10.9023 11.3179 10.9023C11.4766 10.9023 11.628 10.8116 11.6976 10.6582C11.7928 10.4486 11.7004 10.2016 11.4909 10.1065L9.96133 9.41106C9.75058 9.31461 9.50398 9.40903 9.40957 9.61778Z" fill="white"/>
<path d="M14.3779 12.2933C14.5366 12.2933 14.688 12.2026 14.7576 12.0492C14.8528 11.8396 14.7604 11.5926 14.5509 11.4974L13.0209 10.802C12.8089 10.706 12.5639 10.8 12.4691 11.0087C12.3739 11.2183 12.4663 11.4653 12.6759 11.5605L14.2058 12.2559C14.2619 12.2815 14.3205 12.2933 14.3779 12.2933Z" fill="white"/>
<path d="M8.25787 9.51133C8.41658 9.51133 8.56795 9.42059 8.63752 9.26719C8.73275 9.05762 8.63998 8.81063 8.4308 8.71543L8.14303 8.58465C8.93232 7.50723 10.8331 4.76512 10.8331 3.33332C10.8331 1.49535 9.33779 0 7.49982 0C5.66186 0 4.1665 1.49535 4.1665 3.33332C4.1665 5.03621 6.86182 8.60227 7.16904 9.00348C7.17264 9.0082 7.17865 9.01 7.18248 9.01453C7.21014 9.04789 7.24545 9.07375 7.28365 9.09766C7.29713 9.10605 7.30736 9.11836 7.3217 9.12516C7.32389 9.12617 7.32518 9.1282 7.32736 9.12922L8.08576 9.47387C8.14193 9.49953 8.20053 9.51133 8.25787 9.51133ZM4.99982 3.33332C4.99982 1.95473 6.12123 0.83332 7.49982 0.83332C8.87842 0.83332 9.99982 1.95473 9.99982 3.33332C9.99982 4.3941 8.41576 6.79238 7.49982 8.05258C6.58389 6.79238 4.99982 4.39414 4.99982 3.33332Z" fill="white"/>
</svg>
