<svg width="179" height="28" viewBox="0 0 179 28" fill="none" xmlns="http://www.w3.org/2000/svg">
<path d="M14.1435 27.58H9.75601L0.416016 4.34501H4.80352L11.951 21.695L19.0973 4.34501H23.4848L14.1435 27.58ZM43.1285 4.34501V8.03376H30.731V14.1838H41.866V17.6738H30.731V23.89H43.5285V27.58H26.8085V4.34501H43.1285ZM65.9635 4.34501H69.8873V27.58H65.6323L52.4698 10.6275V27.58H48.5473V4.34501H52.4698L65.9635 21.695V4.34626V4.34501ZM85.111 7.93376V27.58H81.1885V7.93376H74.141V4.34501H92.1585V7.93376H85.111ZM101.631 22.145C102.694 23.3863 104.135 24.0075 105.951 24.0075C107.769 24.0075 109.21 23.3863 110.272 22.145C111.336 20.905 111.869 19.22 111.869 17.0925V4.22751H115.791V17.2588C115.791 20.605 114.871 23.1813 113.032 24.9875C111.192 26.7938 108.832 27.6963 105.951 27.6963C103.071 27.6963 100.71 26.7938 98.871 24.9875C97.0323 23.1813 96.1123 20.605 96.1123 17.2588V4.22751H100.036V17.0925C100.036 19.22 100.567 20.905 101.631 22.145ZM140.487 11.89C140.487 15.725 138.815 18.14 135.469 19.1363L141.551 27.58H136.565L131.015 19.7688H125.862V27.5813H121.94V4.34251H130.581C134.127 4.34251 136.665 4.94251 138.194 6.13876C139.724 7.33501 140.487 9.25126 140.487 11.8888V11.89ZM135.27 15.1813C136.067 14.4938 136.466 13.3913 136.466 11.8738C136.466 10.3563 136.056 9.31376 135.236 8.74876C134.416 8.18376 132.954 7.90126 130.849 7.90126H125.861V16.2113H130.749C132.964 16.2113 134.471 15.8675 135.27 15.1813ZM150.06 17.675V23.89H162.859V27.58H146.137V4.34501H162.457V8.03376H150.059V14.1838" fill="white"/>
<path d="M155.735 19.7062H152.503V12.3237H155.376C155.876 12.3237 156.307 12.385 156.67 12.5037C157.032 12.6237 157.301 12.785 157.477 12.99C157.815 13.37 157.985 13.8 157.985 14.2775C157.985 14.855 157.801 15.285 157.435 15.5662C157.347 15.6341 157.255 15.696 157.16 15.7512C157.111 15.7762 157.023 15.8162 156.897 15.8725C157.353 15.9712 157.718 16.1775 157.99 16.49C158.26 16.8025 158.396 17.1925 158.396 17.6575C158.396 18.1712 158.221 18.625 157.868 19.02C157.453 19.4775 156.742 19.7062 155.735 19.7062ZM153.75 15.3862H155.333C156.235 15.3862 156.686 15.08 156.686 14.4675C156.686 14.1162 156.576 13.8625 156.358 13.7075C156.14 13.5525 155.802 13.475 155.345 13.475H153.75V15.3875V15.3862ZM153.75 18.555H155.703C156.161 18.555 156.511 18.4825 156.753 18.3375C156.997 18.1937 157.118 17.9212 157.118 17.52C157.118 16.865 156.593 16.5375 155.545 16.5375H153.75V18.555ZM165.312 18.6875C164.565 19.415 163.643 19.78 162.545 19.78C161.446 19.78 160.525 19.415 159.778 18.6862C159.032 17.9587 158.658 17.05 158.658 15.9612C158.658 14.8737 159.031 13.9662 159.778 13.2375C160.525 12.5087 161.446 12.145 162.545 12.145C163.643 12.145 164.565 12.5087 165.311 13.2375C166.057 13.9662 166.431 14.875 166.431 15.9625C166.431 17.05 166.057 17.9587 165.311 18.6875H165.312ZM164.398 14.0675C164.161 13.8146 163.874 13.6144 163.555 13.4796C163.235 13.3448 162.891 13.2785 162.545 13.285C162.198 13.2785 161.854 13.3448 161.535 13.4796C161.216 13.6144 160.929 13.8147 160.692 14.0675C160.446 14.3169 160.252 14.613 160.122 14.9385C159.993 15.264 159.929 15.6121 159.936 15.9625C159.936 16.705 160.188 17.3375 160.692 17.8575C160.929 18.1103 161.216 18.3106 161.535 18.4454C161.854 18.5802 162.198 18.6465 162.545 18.64C163.277 18.64 163.895 18.3787 164.398 17.8575C164.901 17.3375 165.153 16.705 165.153 15.9625C165.153 15.22 164.901 14.5875 164.398 14.0675Z" fill="white"/>
<path d="M171.056 19.7063L169.24 16.9288H169.187L167.371 19.7063H165.818L168.352 15.915L165.998 12.3238H167.54L169.187 14.8163H169.24L170.887 12.3238H172.428L170.075 15.915L172.608 19.7063H171.056Z" fill="white"/>
<path d="M174.305 1.594H173.63V3.46875H173.354V1.594H172.679V1.3658H174.305V1.594ZM174.976 1.3658L175.663 3.08167L176.351 1.3658H176.71V3.46875H176.433V2.64981L176.459 1.76588L175.769 3.46875H175.556L174.867 1.77021L174.895 2.64981V3.46875H174.617V1.3658H174.976Z" fill="white"/>
</svg>
