<svg width="17" height="17" viewBox="0 0 17 17" fill="none" xmlns="http://www.w3.org/2000/svg">
<g clip-path="url(#clip0)">
<path d="M10.9244 2.10066C10.7535 0.903152 9.71115 0 8.49988 0C7.7209 0 6.98109 0.375898 6.52112 1.00588C6.42717 1.13436 6.45528 1.31459 6.58375 1.40854C6.71181 1.50216 6.89246 1.47439 6.98624 1.34574C7.33834 0.863983 7.90408 0.576298 8.4998 0.576298C9.42616 0.576298 10.2231 1.26664 10.3538 2.18195C10.3744 2.32571 10.4977 2.42945 10.6388 2.42945C10.6522 2.42945 10.666 2.42844 10.6798 2.42658C10.8373 2.40404 10.9468 2.25809 10.9244 2.10066Z" fill="white"/>
<path d="M15.086 5.32618L14.2216 3.88548C14.1696 3.79862 14.0758 3.74561 13.9745 3.74561H13.1461C12.9871 3.74561 12.858 3.87468 12.858 4.03371C12.858 4.19275 12.9871 4.32182 13.1461 4.32182H13.8114L14.33 5.18622H2.66976L3.1884 4.32182H3.49356C3.6526 4.32182 3.78167 4.19275 3.78167 4.03371C3.78167 3.87468 3.6526 3.74561 3.49356 3.74561H3.02532C2.92402 3.74561 2.83023 3.79862 2.77823 3.88548L1.91383 5.32618C1.86039 5.41533 1.85913 5.52616 1.9102 5.61649C1.96127 5.70681 2.057 5.76269 2.16091 5.76269H14.8389C14.9428 5.76269 15.0384 5.70681 15.0896 5.61649C15.1408 5.52616 15.1394 5.41516 15.086 5.32618Z" fill="white"/>
<path d="M13.6496 2.66967C13.6093 2.60459 13.5449 2.55841 13.4704 2.54102L9.54251 1.62234C9.46814 1.60487 9.3898 1.61787 9.3248 1.65805C9.25997 1.6984 9.21371 1.76281 9.19632 1.83726L8.90011 3.10348C8.86382 3.25838 8.96005 3.41336 9.11503 3.44949C9.26993 3.48579 9.42509 3.38956 9.46122 3.23457L9.69184 2.24903L13.0585 3.03654L12.5295 5.29843C12.4932 5.45333 12.5895 5.60831 12.7444 5.64444C12.7666 5.64959 12.7887 5.65204 12.8105 5.65204C12.9413 5.65204 13.0597 5.56239 13.0905 5.42961L13.6852 2.88721C13.7028 2.81284 13.69 2.7345 13.6496 2.66967Z" fill="white"/>
<path d="M8.65223 3.35039L8.3897 1.12987C8.38076 1.05398 8.34201 0.984676 8.28191 0.937403C8.2218 0.890131 8.14591 0.868521 8.06969 0.877469L3.25046 1.4471C3.09252 1.46584 2.97958 1.60901 2.99823 1.76711L3.43592 5.47064C3.45331 5.61726 3.57765 5.72506 3.72175 5.72506C3.73298 5.72506 3.74454 5.7243 3.75602 5.72304C3.91388 5.7043 4.02682 5.56113 4.00825 5.40302L3.60433 1.98541L7.85131 1.48348L8.0799 3.41784C8.09864 3.57587 8.24113 3.68814 8.39992 3.67024C8.55786 3.65167 8.6708 3.50842 8.65223 3.35039Z" fill="white"/>
<path d="M10.931 5.36495L10.3591 2.98665C10.3412 2.91245 10.2945 2.84821 10.2295 2.80828C10.1644 2.76869 10.0863 2.75628 10.0116 2.77401L5.36989 3.89031C5.21516 3.92745 5.11994 4.08311 5.15708 4.23784L5.44291 5.42657C5.48005 5.58147 5.63571 5.67677 5.79036 5.63938C5.94509 5.60224 6.04031 5.44657 6.00317 5.29184L5.78462 4.3832L9.86606 3.4018L10.3706 5.49984C10.4023 5.63195 10.5204 5.72058 10.6505 5.72058C10.6729 5.72058 10.6955 5.71797 10.7182 5.71248C10.873 5.67525 10.9682 5.51968 10.931 5.36495Z" fill="white"/>
<path d="M15.1269 5.45986C15.1189 5.30673 14.9925 5.18652 14.839 5.18652H2.16104C2.00757 5.18652 1.88112 5.30665 1.87319 5.45986L1.29689 16.6971C1.29284 16.776 1.32137 16.8531 1.37573 16.9104C1.43018 16.9675 1.50565 17 1.58466 17H15.4151C15.4941 17 15.5696 16.9676 15.6243 16.9104C15.6786 16.8531 15.7071 16.7761 15.7032 16.6971L15.1269 5.45986ZM1.88787 16.4237L2.43463 5.76274H14.5651L15.1118 16.4237H1.88787Z" fill="white"/>
<path d="M10.6609 6.33887C10.1842 6.33887 9.79651 6.72658 9.79651 7.20327C9.79651 7.67996 10.1842 8.06768 10.6609 8.06768C11.1376 8.06768 11.5253 7.67996 11.5253 7.20327C11.5253 6.72658 11.1376 6.33887 10.6609 6.33887ZM10.6609 7.49146C10.502 7.49146 10.3728 7.36222 10.3728 7.20336C10.3728 7.04449 10.502 6.91525 10.6609 6.91525C10.8198 6.91525 10.949 7.04449 10.949 7.20336C10.949 7.36222 10.8198 7.49146 10.6609 7.49146Z" fill="white"/>
<path d="M6.33889 6.33887C5.8622 6.33887 5.47449 6.72658 5.47449 7.20327C5.47449 7.67996 5.8622 8.06768 6.33889 8.06768C6.81558 8.06768 7.2033 7.67996 7.2033 7.20327C7.2033 6.72658 6.81558 6.33887 6.33889 6.33887ZM6.33889 7.49146C6.18002 7.49146 6.05079 7.36222 6.05079 7.20336C6.05079 7.04449 6.18002 6.91525 6.33889 6.91525C6.49776 6.91525 6.627 7.04449 6.627 7.20336C6.627 7.36222 6.49776 7.49146 6.33889 7.49146Z" fill="white"/>
<path d="M10.6609 7.20312H10.6387C10.4797 7.20312 10.3506 7.33219 10.3506 7.49123C10.3506 7.53057 10.3584 7.56813 10.3728 7.60232V9.07595C10.3728 10.1086 9.53263 10.9488 8.4999 10.9488C7.46717 10.9488 6.627 10.1087 6.627 9.07595V7.49132C6.627 7.33228 6.49793 7.20321 6.33889 7.20321C6.17985 7.20321 6.05078 7.33228 6.05078 7.49132V9.07603C6.05078 10.4265 7.14944 11.5251 8.4999 11.5251C9.85037 11.5251 10.949 10.4265 10.949 9.07603V7.49132C10.949 7.33228 10.82 7.20312 10.6609 7.20312Z" fill="white"/>
</g>
<defs>
<clipPath id="clip0">
<rect width="17" height="17" fill="white"/>
</clipPath>
</defs>
</svg>
