<svg width="17" height="13" viewBox="0 0 17 13" fill="none" xmlns="http://www.w3.org/2000/svg">
<path d="M15.0759 7.38849V2.29137C15.0759 1.02878 14.0896 0 12.7746 0H2.3013C0.986272 0.0467626 0 1.02878 0 2.29137V9.53957C0 10.8022 0.986272 11.8309 2.3013 11.8309H10.5202C11.1308 12.5324 12.0701 13 13.0564 13C14.841 13 16.25 11.5504 16.25 9.77338V9.72662C16.25 8.83813 15.7803 7.94964 15.0759 7.38849ZM2.3013 11.2698C1.36199 11.2698 0.610549 10.5216 0.610549 9.58633V2.29137C0.610549 1.40288 1.36199 0.607914 2.3013 0.607914V0.654676H12.8215C13.7608 0.654676 14.5123 1.40288 14.5123 2.33813V7.01439C14.0426 6.78058 13.526 6.64029 13.0094 6.64029C11.2247 6.64029 9.81575 8.13669 9.81575 9.91367C9.81575 10.3813 9.95665 10.8489 10.1445 11.2698H2.3013ZM15.6395 9.86691C15.5925 11.3165 14.4184 12.4388 12.9624 12.4388C11.7883 12.4388 10.7081 11.5036 10.4263 10.4281C10.3793 10.241 10.3324 10.0072 10.3324 9.77338C10.3793 8.32374 11.5535 7.20144 13.0094 7.20144C13.4321 7.20144 13.8548 7.29496 14.1835 7.48201C15.0759 7.94964 15.6395 8.88489 15.6395 9.86691Z" fill="white"/>
<path d="M11.4596 6.45317C11.6475 6.45317 11.7884 6.31288 11.7884 6.17259V2.43159C11.7884 2.24454 11.6475 2.10425 11.4596 2.10425C11.2718 2.10425 11.1309 2.24454 11.1309 2.43159V6.12583C11.1778 6.31288 11.3187 6.45317 11.4596 6.45317Z" fill="white"/>
<path d="M13.0094 11.2697C13.1973 11.2697 13.3382 11.1294 13.3382 10.9891V8.60419C13.3382 8.41714 13.1973 8.27686 13.0094 8.27686C12.8216 8.27686 12.6807 8.41714 12.6807 8.60419V10.9423C12.6807 11.1294 12.8216 11.2697 13.0094 11.2697Z" fill="white"/>
<path d="M11.5068 9.82026C11.5068 10.0073 11.6477 10.1476 11.7886 10.1476H14.1839C14.3717 10.1476 14.5126 10.0073 14.5126 9.82026C14.5126 9.63321 14.3717 9.49292 14.1839 9.49292H11.8356C11.6477 9.49292 11.5068 9.63321 11.5068 9.82026Z" fill="white"/>
<path d="M7.56118 2.10425C7.37332 2.10425 7.23242 2.24454 7.23242 2.43159V9.5395C7.23242 9.72655 7.37332 9.86684 7.56118 9.86684C7.74904 9.86684 7.88994 9.72655 7.88994 9.5395V2.38482C7.88994 2.24454 7.74904 2.10425 7.56118 2.10425Z" fill="white"/>
<path d="M3.66372 2.10425C3.47586 2.10425 3.33496 2.24454 3.33496 2.43159V9.5395C3.33496 9.72655 3.47586 9.86684 3.66372 9.86684C3.85158 9.86684 3.99248 9.72655 3.99248 9.5395V2.38482C3.94551 2.24454 3.85158 2.10425 3.66372 2.10425Z" fill="white"/>
</svg>
