<svg width="16" height="14" viewBox="0 0 16 14" fill="none" xmlns="http://www.w3.org/2000/svg">
<path d="M15.8252 1.76129C15.5146 1.4 15.1153 1.21935 14.6717 1.21935C14.0062 1.21935 13.3407 1.35484 12.6751 1.53548C11.4329 0.587097 9.79129 0 8.06098 0C4.06795 0 0.829157 3.16129 0.829157 7C0.829157 7.90323 1.00663 8.71613 1.31719 9.52903C0.208019 10.929 -0.324385 12.1484 0.208019 12.871C0.518588 13.2323 1.00663 13.4129 1.49466 13.3677C1.5834 13.3677 1.67213 13.3677 1.80523 13.3226C1.89397 13.3226 1.9827 13.2774 2.07143 13.2323C2.16017 13.1871 2.29327 13.0065 2.16017 12.9161C2.07143 12.871 2.02707 12.871 1.93833 12.871C1.7165 12.9161 1.53903 12.9161 1.31719 12.9161C0.34112 12.7806 0.474221 11.7871 0.784791 11.2452C1.05099 10.8387 1.31719 10.4323 1.5834 10.071C2.78131 12.3742 5.22149 14 8.10535 14C12.0984 14 15.3372 10.8387 15.3372 7V6.90968C15.2928 4.92258 14.4498 3.16129 13.0745 1.89677C14.1393 1.53548 15.3815 1.30968 15.559 2.2129C15.6034 2.34839 15.559 2.48387 15.5146 2.61935C15.3815 2.8 15.2928 3.02581 15.2928 3.20645C15.2928 3.29677 15.3372 3.34194 15.3815 3.3871C15.4703 3.43226 15.5146 3.3871 15.6034 3.34194C15.6477 3.29677 15.6921 3.25161 15.7365 3.16129C16.047 2.8 16.0914 2.2129 15.8252 1.76129ZM14.8935 6.86452C14.8048 6.86452 14.7604 6.86452 14.6273 6.86452H11.9209C11.9209 5.6 11.6103 4.29032 10.9892 3.16129H13.6069C14.4055 4.2 14.8491 5.46452 14.8935 6.86452ZM13.6512 10.7935C13.6069 10.7935 13.5625 10.7935 13.5181 10.7935H11.0336C11.566 9.70968 11.8765 8.53548 11.9209 7.36129H14.8048C14.8491 7.36129 14.8491 7.40645 14.8935 7.40645C14.8048 8.67097 14.3611 9.84516 13.6512 10.7935ZM5.7539 10.7935C5.22149 9.75484 4.86656 8.53548 4.82219 7.36129H11.4329C11.3885 8.53548 11.0336 9.75484 10.5012 10.7935H5.7539ZM10.235 11.2452C9.70256 12.1484 8.94832 12.9613 8.10535 13.5032C7.26237 12.9613 6.5525 12.1484 5.97573 11.2452H10.235ZM2.60384 3.16129C2.64821 3.16129 2.69257 3.16129 2.73694 3.16129H5.22149C4.68909 4.24516 4.37852 5.37419 4.33415 6.54839C4.20105 6.63871 4.06795 6.77419 3.93485 6.86452H1.27283C1.31719 5.46452 1.80523 4.2 2.60384 3.16129ZM8.14971 0.496774C8.94832 1.03871 9.65819 1.80645 10.1906 2.66452C10.1462 2.66452 10.1462 2.70968 10.1019 2.70968H6.0201C6.59687 1.80645 7.30674 1.03871 8.14971 0.496774ZM9.21452 3.16129C8.19408 3.70323 7.21801 4.33548 6.2863 5.0129C5.79826 5.37419 5.31023 5.73548 4.86656 6.09677C4.99966 5.05806 5.31023 4.06452 5.79826 3.16129H9.21452ZM4.82219 6.77419C5.39896 6.27742 5.97573 5.82581 6.5525 5.41935C7.70604 4.56129 8.94832 3.83871 10.235 3.16129H10.4568C11.0336 4.29032 11.3885 5.6 11.4329 6.86452H4.82219C4.82219 6.81935 4.82219 6.81935 4.82219 6.77419ZM8.81522 0.451613C10.1019 0.587097 11.2554 1.03871 12.2315 1.76129C12.1871 1.76129 12.1871 1.76129 12.1427 1.80645C11.6103 2.03226 11.1223 2.25806 10.6343 2.48387C10.1462 1.71613 9.52509 1.03871 8.81522 0.451613ZM7.48421 0.451613C6.8187 0.993548 6.24193 1.62581 5.7539 2.30323C5.66516 2.43871 5.62079 2.57419 5.53206 2.66452H2.95877C4.06795 1.44516 5.66516 0.587097 7.48421 0.451613ZM1.31719 7.36129H3.44681C2.78131 7.94839 2.16017 8.58064 1.67213 9.16774C1.4503 8.58064 1.31719 7.99355 1.31719 7.36129ZM4.15668 7.36129H4.33415C4.37852 8.58064 4.68909 9.75484 5.22149 10.7935H2.60384C2.55947 10.7935 2.55947 10.7935 2.5151 10.7935C2.2489 10.4323 2.07143 10.071 1.89397 9.70968C2.55947 8.85161 3.35808 8.08387 4.15668 7.36129ZM2.91441 11.2452H5.48769C5.97573 12.1032 6.64124 12.871 7.48421 13.5484C5.62079 13.4129 4.02358 12.5548 2.91441 11.2452ZM8.81522 13.5484C9.48072 13.0065 10.0575 12.4194 10.5012 11.6968C10.5899 11.5613 10.6786 11.3806 10.7674 11.2452H13.2963C12.1871 12.5097 10.5899 13.3677 8.81522 13.5484ZM13.2519 2.70968H11.2554C11.3885 2.66452 11.4772 2.61935 11.6103 2.52903C11.8322 2.43871 12.2315 2.25806 12.6751 2.07742C12.8526 2.25806 13.0301 2.48387 13.2519 2.70968Z" fill="white"/>
</svg>
