<svg width="14" height="14" viewBox="0 0 14 14" fill="none" xmlns="http://www.w3.org/2000/svg">
<path d="M0.0147991 10.5L0 13.3797C0 13.5422 0.0591967 13.7046 0.17759 13.8228C0.295983 13.9409 0.443975 14 0.606765 14L3.4778 13.9852C3.64059 13.9852 3.78858 13.9262 3.90698 13.808L13.8224 3.9135C14.0592 3.67722 14.0592 3.29325 13.8224 3.04219L10.981 0.177215C10.7442 -0.0590717 10.3594 -0.0590717 10.1078 0.177215L8.12474 2.17089L0.192389 10.0717C0.088795 10.1899 0.0147991 10.3376 0.0147991 10.5ZM10.5518 1.47679L12.5497 3.47046L11.4249 4.59283L9.42706 2.59916L10.5518 1.47679ZM1.24313 10.7658L8.55391 3.47046L10.5518 5.46414L3.24101 12.7447L1.22833 12.7595L1.24313 10.7658Z" fill="black"/>
</svg>
