<svg width="16" height="16" viewBox="0 0 16 16" fill="none" xmlns="http://www.w3.org/2000/svg">
<path d="M15.2728 8.72754C15.0546 8.72754 14.9092 8.87301 14.9092 9.09116V13.8184C14.9092 14.0366 14.7637 14.1821 14.5456 14.1821H1.45464C1.23646 14.1821 1.09102 14.0366 1.09102 13.8184V9.09116C1.09102 8.87298 0.945551 8.72754 0.727395 8.72754C0.509238 8.72754 0.36377 8.87301 0.36377 9.09116V13.8184C0.36377 14.4366 0.836488 14.9094 1.45468 14.9094H14.5456C15.1638 14.9094 15.6365 14.4366 15.6365 13.8184V9.09116C15.6365 8.87298 15.491 8.72754 15.2728 8.72754Z" fill="white"/>
<path d="M14.9091 3.63672H1.09091C0.472719 3.63672 0 4.10944 0 4.72762V7.0549C0 7.56396 0.363625 8.00034 0.836375 8.10943L6.54547 9.38215V10.5458C6.54547 10.764 6.69094 10.9094 6.90909 10.9094H9.09091C9.30909 10.9094 9.45453 10.7639 9.45453 10.5458V9.38215L15.1636 8.10943C15.6364 8.00034 16 7.56396 16 7.05487V4.72759C16 4.10944 15.5273 3.63672 14.9091 3.63672ZM8.72728 10.1821H7.27275V8.72762H8.72728V10.1821ZM15.2727 7.05487C15.2727 7.23668 15.1636 7.38215 14.9818 7.4185L9.45453 8.65487V8.36396C9.45453 8.14578 9.30906 8.00034 9.09091 8.00034H6.90909C6.69091 8.00034 6.54547 8.14581 6.54547 8.36396V8.65487L1.01819 7.41853C0.836375 7.38215 0.727281 7.23671 0.727281 7.0549V4.72762C0.727281 4.50944 0.87275 4.364 1.09091 4.364H14.9091C15.1273 4.364 15.2727 4.50947 15.2727 4.72762V7.05487Z" fill="white"/>
<path d="M9.8181 1.09082H6.18173C5.56354 1.09082 5.09082 1.56354 5.09082 2.18173V2.54535C5.09082 2.76354 5.23629 2.90897 5.45445 2.90897C5.6726 2.90897 5.81807 2.76351 5.81807 2.54535V2.18173C5.81807 1.96354 5.96354 1.8181 6.1817 1.8181H9.81807C10.0363 1.8181 10.1817 1.96357 10.1817 2.18173V2.54535C10.1817 2.76354 10.3272 2.90897 10.5453 2.90897C10.7635 2.90897 10.9089 2.76351 10.9089 2.54535V2.18173C10.909 1.56354 10.4363 1.09082 9.8181 1.09082Z" fill="white"/>
</svg>
