<svg width="18" height="18" viewBox="0 0 18 18" fill="none" xmlns="http://www.w3.org/2000/svg">
<path d="M14.5562 5.22949C14.7503 5.22949 14.9077 5.0721 14.9077 4.87793V1.05469C14.9077 0.473133 14.4346 0 13.853 0H1.05615C0.474598 0 0.00146484 0.473133 0.00146484 1.05469V16.9453C0.00146484 17.5269 0.474598 18 1.05615 18H13.853C14.4346 18 14.9077 17.5269 14.9077 16.9453V14.3553C14.9077 14.1611 14.7503 14.0037 14.5562 14.0037C14.362 14.0037 14.2046 14.1611 14.2046 14.3553V16.9453C14.2046 17.1392 14.0469 17.2969 13.853 17.2969H1.05615C0.862301 17.2969 0.70459 17.1392 0.70459 16.9453V1.05469C0.70459 0.860836 0.862301 0.703125 1.05615 0.703125H13.853C14.0469 0.703125 14.2046 0.860836 14.2046 1.05469V4.87793C14.2046 5.0721 14.362 5.22949 14.5562 5.22949Z" fill="white"/>
<path d="M7.45312 1.89844C5.66968 1.89844 4.21875 3.34937 4.21875 5.13281C4.21875 6.05802 4.60934 6.89361 5.23413 7.48368C5.24584 7.49619 5.25828 7.50804 5.27189 7.51883C5.84743 8.04544 6.61338 8.36715 7.45309 8.36715C8.29279 8.36715 9.05874 8.0454 9.63429 7.51883C9.64789 7.50804 9.66034 7.49616 9.67204 7.48368C10.2969 6.89361 10.6875 6.05802 10.6875 5.13281C10.6875 3.34937 9.23656 1.89844 7.45312 1.89844ZM7.45312 7.66406C6.87906 7.66406 6.34925 7.47169 5.92414 7.14839C6.23313 6.60048 6.80973 6.25781 7.45312 6.25781C8.09652 6.25781 8.67311 6.60048 8.9821 7.14839C8.55696 7.47169 8.02719 7.66406 7.45312 7.66406ZM6.89062 4.99219V4.76367C6.89062 4.45352 7.14298 4.20117 7.45312 4.20117C7.76327 4.20117 8.01562 4.45352 8.01562 4.76367V4.99219C8.01562 5.30234 7.76327 5.55469 7.45312 5.55469C7.14298 5.55469 6.89062 5.30234 6.89062 4.99219ZM9.49008 6.63339C9.2308 6.24885 8.87147 5.94977 8.45427 5.76513C8.61985 5.55114 8.71875 5.28307 8.71875 4.99219V4.76367C8.71875 4.06579 8.15101 3.49805 7.45312 3.49805C6.75524 3.49805 6.1875 4.06579 6.1875 4.76367V4.99219C6.1875 5.28307 6.28639 5.55114 6.45198 5.76513C6.03478 5.94977 5.67545 6.24885 5.41617 6.63339C5.10578 6.21316 4.92187 5.69415 4.92187 5.13281C4.92187 3.73707 6.05739 2.60156 7.45312 2.60156C8.84886 2.60156 9.98437 3.73707 9.98437 5.13281C9.98437 5.69415 9.80047 6.21316 9.49008 6.63339Z" fill="white"/>
<path d="M9.35156 15.3984H7.45312C7.25899 15.3984 7.10156 15.5558 7.10156 15.75C7.10156 15.9442 7.25899 16.1016 7.45312 16.1016H9.35156C9.54569 16.1016 9.70312 15.9442 9.70312 15.75C9.70312 15.5558 9.54569 15.3984 9.35156 15.3984Z" fill="white"/>
<path d="M9.35156 13.4297H4.35937C4.16524 13.4297 4.00781 13.5871 4.00781 13.7812C4.00781 13.9754 4.16524 14.1328 4.35937 14.1328H9.35156C9.54569 14.1328 9.70312 13.9754 9.70312 13.7812C9.70312 13.5871 9.54569 13.4297 9.35156 13.4297Z" fill="white"/>
<path d="M9.35156 11.4609H4.35937C4.16524 11.4609 4.00781 11.6183 4.00781 11.8125C4.00781 12.0067 4.16524 12.1641 4.35937 12.1641H9.35156C9.54569 12.1641 9.70312 12.0067 9.70312 11.8125C9.70312 11.6183 9.54569 11.4609 9.35156 11.4609Z" fill="white"/>
<path d="M3.10629 9.5952C3.04094 9.5298 2.95023 9.49219 2.85742 9.49219C2.76493 9.49219 2.67422 9.5298 2.60887 9.5952C2.54348 9.66059 2.50586 9.75129 2.50586 9.84375C2.50586 9.93621 2.54344 10.0269 2.60887 10.0923C2.67461 10.1577 2.76493 10.1953 2.85742 10.1953C2.95023 10.1953 3.04059 10.1577 3.10629 10.0923C3.17168 10.0269 3.20934 9.93621 3.20934 9.84375C3.20934 9.75129 3.17172 9.66059 3.10629 9.5952Z" fill="white"/>
<path d="M3.10629 11.5639C3.04059 11.4986 2.95023 11.4609 2.85742 11.4609C2.76493 11.4609 2.67461 11.4986 2.60887 11.5639C2.54348 11.6293 2.50586 11.72 2.50586 11.8125C2.50586 11.905 2.54344 11.9957 2.60887 12.0611C2.67461 12.1264 2.76493 12.1641 2.85742 12.1641C2.95023 12.1641 3.04059 12.1264 3.10629 12.0611C3.17168 11.9957 3.20934 11.905 3.20934 11.8125C3.20934 11.72 3.17172 11.6293 3.10629 11.5639Z" fill="white"/>
<path d="M3.10629 13.5327C3.04059 13.4673 2.95023 13.4297 2.85742 13.4297C2.76493 13.4297 2.67461 13.4673 2.60887 13.5327C2.54348 13.5981 2.50586 13.6888 2.50586 13.7812C2.50586 13.8737 2.54344 13.9644 2.60887 14.0298C2.67422 14.0952 2.76493 14.1328 2.85742 14.1328C2.95023 14.1328 3.04094 14.0952 3.10629 14.0298C3.17168 13.9644 3.20934 13.8737 3.20934 13.7812C3.20934 13.6888 3.17172 13.5981 3.10629 13.5327Z" fill="white"/>
<path d="M9.35156 9.49219H4.35937C4.16524 9.49219 4.00781 9.64958 4.00781 9.84375C4.00781 10.0379 4.16524 10.1953 4.35937 10.1953H9.35156C9.54569 10.1953 9.70312 10.0379 9.70312 9.84375C9.70312 9.64958 9.54569 9.49219 9.35156 9.49219Z" fill="white"/>
<path d="M17.2621 4.58175C16.9205 4.38456 16.5226 4.33218 16.1416 4.43424C15.7607 4.53633 15.4422 4.78067 15.2451 5.12221L10.8209 12.785C10.7967 12.827 10.7814 12.8736 10.776 12.9218L10.4646 15.7112C10.4491 15.85 10.5172 15.9848 10.6382 16.0547C10.6928 16.0862 10.7534 16.1018 10.8139 16.1018C10.8875 16.1018 10.9607 16.0788 11.0224 16.0333L13.2824 14.3689C13.3215 14.3401 13.3542 14.3036 13.3784 14.2616L17.8025 6.59881C18.2096 5.89371 17.9672 4.98886 17.2621 4.58175ZM11.2525 14.9906L11.4151 13.534L12.4326 14.1215L11.2525 14.9906ZM12.9453 13.6055L11.6056 12.8321L15.1559 6.6829L16.4955 7.45634L12.9453 13.6055ZM17.1936 6.24721L16.8471 6.84743L15.5074 6.07399L15.854 5.47377C15.9572 5.29486 16.124 5.16689 16.3236 5.11342C16.5232 5.05991 16.7316 5.0874 16.9105 5.19069C17.0894 5.29398 17.2174 5.46076 17.2708 5.66031C17.3243 5.85986 17.2969 6.0683 17.1936 6.24721Z" fill="white"/>
</svg>
