<svg width="20" height="20" viewBox="0 0 20 20" fill="none" xmlns="http://www.w3.org/2000/svg">
<g clip-path="url(#clip0)">
<path d="M19.9726 7.66857C19.9069 7.46743 19.7345 7.32376 19.5251 7.29092L13.2857 6.40426L10.4779 0.760016C10.3835 0.571191 10.1906 0.452148 9.98124 0.452148C9.77189 0.452148 9.57896 0.571191 9.48454 0.764121L6.71373 6.42479L0.474278 7.35249C0.264928 7.38533 0.0925219 7.529 0.0268434 7.73014C-0.0388351 7.93129 0.0186336 8.15295 0.170515 8.29662L4.69823 12.6848L3.65147 18.8996C3.61453 19.1089 3.70073 19.3183 3.87314 19.4414C3.96755 19.5112 4.08249 19.5482 4.19743 19.5482C4.28773 19.5482 4.37394 19.5276 4.45604 19.4825L10.0264 16.5311L15.6132 19.4496C15.6953 19.4907 15.7815 19.5112 15.8677 19.5112C16.1714 19.5112 16.4218 19.2608 16.4218 18.9571C16.4218 18.9119 16.4177 18.8709 16.4054 18.8298L15.3258 12.6519L19.8248 8.23915C19.9849 8.09138 20.0383 7.86971 19.9726 7.66857ZM14.3489 12.0649C14.2175 12.1922 14.16 12.3769 14.1929 12.5575L15.1329 17.9473L10.2809 15.4145C10.1208 15.3283 9.92788 15.3324 9.76368 15.4145L4.9281 17.976L5.83528 12.578C5.86402 12.3974 5.80655 12.2168 5.67519 12.0896L1.7509 8.2802L7.16527 7.47564C7.34589 7.44691 7.50188 7.33607 7.57987 7.17188L9.98534 2.25831L12.4237 7.15956C12.5058 7.32376 12.6617 7.43459 12.8424 7.46333L18.2608 8.23505L14.3489 12.0649Z" fill="white"/>
</g>
<defs>
<clipPath id="clip0">
<rect width="20" height="20" fill="white"/>
</clipPath>
</defs>
</svg>
