<svg width="18" height="18" viewBox="0 0 18 18" fill="none" xmlns="http://www.w3.org/2000/svg">
<path d="M17.7563 0.287846C17.5906 0.124686 17.3625 0.0393611 17.1307 0.0544432L16.8021 0.0753963C13.8553 0.263518 11.0975 1.68591 9.23592 3.97789L8.46234 4.93024L6.43793 4.87079C6.43449 4.87068 6.431 4.87065 6.42759 4.87065C4.82208 4.87065 3.31264 5.49587 2.17734 6.63114L0.103887 8.70462C0.00527326 8.80324 -0.026051 8.95072 0.0240116 9.08086C0.0740742 9.21105 0.196067 9.29957 0.335356 9.30667L4.72441 9.53217L4.54547 9.75249C4.45529 9.86355 4.44102 10.018 4.5094 10.1437C4.57816 10.2701 4.65023 10.3945 4.7254 10.5169L3.68456 11.7526C3.59558 11.8582 3.57642 12.0061 3.63544 12.131C3.8628 12.6114 4.16455 13.043 4.53242 13.4139C4.90923 13.7939 5.34984 14.1046 5.84196 14.3375C5.89005 14.3603 5.94163 14.3714 5.99289 14.3714C6.07238 14.3714 6.1512 14.3446 6.21532 14.2926C6.43955 14.1107 6.69805 13.8949 6.94808 13.6863C7.12629 13.5376 7.30861 13.3855 7.47901 13.2452C7.58072 13.3064 7.68369 13.3658 7.78821 13.4226C7.84109 13.4514 7.89906 13.4655 7.95682 13.4655C8.03368 13.4655 8.11004 13.4405 8.17325 13.3914L8.41382 13.2047L8.6403 17.6123C8.64747 17.7516 8.73596 17.8736 8.86611 17.9236C8.90731 17.9395 8.95013 17.9472 8.99267 17.9472C9.0846 17.9472 9.17489 17.9112 9.24232 17.8438L11.3158 15.7703C12.4511 14.635 13.0763 13.1256 13.0763 11.52V9.58659L13.8943 8.95184C16.3457 7.04953 17.8387 4.18099 17.9904 1.08168L17.9988 0.909902C18.0103 0.67773 17.9218 0.451042 17.7563 0.287846ZM1.16434 8.64247L2.67649 7.13032C3.67721 6.1296 5.00746 5.57792 6.4225 5.57655L7.90205 5.62001L5.27552 8.85369L1.16434 8.64247ZM6.49583 13.1443C6.31158 13.298 6.12268 13.4556 5.94739 13.5998C5.60835 13.4162 5.30164 13.1871 5.03361 12.9168C4.77402 12.6551 4.55306 12.357 4.37489 12.0288L5.13694 11.1241C5.36735 11.4332 5.61956 11.726 5.89202 12.0004C5.89223 12.0006 5.89245 12.0007 5.89266 12.0009C5.89273 12.001 5.8928 12.0011 5.89287 12.0012C5.89297 12.0013 5.89308 12.0014 5.89318 12.0015C6.19528 12.3055 6.52023 12.5845 6.86494 12.8368C6.74323 12.9379 6.61853 13.0419 6.49583 13.1443ZM12.3705 11.52C12.3705 12.937 11.8187 14.2691 10.8167 15.2711L9.30458 16.7833L9.09357 12.6773L12.3705 10.1344V11.52H12.3705ZM17.2854 1.04719C17.1438 3.94045 15.7501 6.61831 13.4616 8.39416L7.92589 12.6899C7.46682 12.4216 7.03893 12.1049 6.64732 11.7461L8.51363 9.87976C8.65144 9.74194 8.65144 9.51842 8.51363 9.38057C8.37578 9.24272 8.15229 9.24272 8.01445 9.38057L6.1499 11.2451C5.80709 10.8656 5.50348 10.4527 5.24497 10.011L9.78386 4.42293C11.5217 2.28335 14.0961 0.9555 16.847 0.779929L17.1757 0.758976C17.2187 0.756304 17.2476 0.777679 17.2608 0.790757C17.2741 0.8038 17.296 0.832171 17.2939 0.875449L17.2854 1.04719Z" fill="white"/>
</svg>
