<svg width="20" height="20" viewBox="0 0 20 20" fill="none" xmlns="http://www.w3.org/2000/svg">
<path d="M0.459764 10.549H3.37148V8.30713C3.37148 8.05319 3.57738 7.84736 3.83125 7.84736H5.71016L4.62859 5.97401L2.1268 7.41842C2.05633 7.45916 1.97691 7.48002 1.89691 7.48002C1.85711 7.48002 1.81707 7.47483 1.77793 7.46436C1.66008 7.43276 1.55973 7.35576 1.49875 7.25014L0.694139 5.85647C0.595196 5.68506 0.616993 5.46951 0.748398 5.32147C2.58152 3.25529 4.5784 1.1474 7.05375 0.0645124C7.26824 -0.0293158 7.5191 0.053028 7.63617 0.25588L9.13043 2.844C9.25742 3.06393 9.18207 3.3451 8.96215 3.47205L7.41582 4.36483L10.1265 9.05971L13.2083 4.49123L13.294 3.83428C13.3032 3.76346 13.3288 3.69584 13.3688 3.63666L14.5343 1.90885C14.6763 1.6983 14.9621 1.64283 15.1725 1.78479L17.2686 3.19858C17.3697 3.26678 17.4396 3.37232 17.4629 3.49201C17.4861 3.6117 17.4609 3.73576 17.3927 3.83686L16.2272 5.56467C16.1873 5.62377 16.1343 5.67275 16.0722 5.70783L15.4953 6.03381L12.4496 10.5489H14.2316L16.0464 6.81904C16.1575 6.59072 16.4327 6.49572 16.661 6.60678C16.8893 6.71791 16.9843 6.99303 16.8732 7.22135L15.2542 10.5489H16.4175L17.1423 8.90029C17.2446 8.66783 17.516 8.56229 17.7483 8.66447C17.9807 8.76666 18.0864 9.03795 17.9841 9.27041L17.422 10.549H19.5402C19.7941 10.549 20 10.7548 20 11.0088V13.5375C20 13.7915 19.7941 13.9973 19.5402 13.9973H18.7356V19.5145C18.7356 19.7685 18.5297 19.9743 18.2759 19.9743H1.72414C1.47027 19.9743 1.26438 19.7685 1.26438 19.5145V13.9973H0.459764C0.205858 13.9973 0 13.7915 0 13.5375V11.0088C0 10.7548 0.205898 10.549 0.459764 10.549ZM4.29102 8.7669V10.549H7.26988L6.24105 8.7669H4.29102ZM8.10418 2.90561L7.05019 1.08006C5.00391 2.08893 3.26438 3.88397 1.65644 5.68428L2.0652 6.39217L8.10418 2.90561ZM9.69789 10.1569C9.69769 10.1565 9.69762 10.1562 9.69742 10.1559L6.61934 4.82455L5.42488 5.51416L8.3316 10.5489H9.92434L9.69789 10.1569ZM14.7936 5.42979C14.8334 5.37072 14.8865 5.3217 14.9486 5.28662L15.5255 4.96065L16.3732 3.70381L15.0395 2.80424L14.1917 4.06092L14.106 4.71787C14.0968 4.78869 14.0712 4.85631 14.0312 4.91549L10.638 9.94565L10.9863 10.5489H11.3403L14.7936 5.42979ZM2.18391 17.1467H4.09195C4.34582 17.1467 4.55172 17.3525 4.55172 17.6064C4.55172 17.8604 4.34582 18.0662 4.09195 18.0662H2.18391V19.0547H17.8161V18.0662H15.908C15.6542 18.0662 15.4483 17.8604 15.4483 17.6064C15.4483 17.3525 15.6542 17.1467 15.908 17.1467H17.8161V13.9972H12.5287V15.6064C12.5287 15.8604 12.3229 16.0662 12.069 16.0662H7.93106C7.67719 16.0662 7.47129 15.8604 7.47129 15.6064V13.9972H2.18394V17.1467H2.18391ZM11.6092 15.1467V13.9972H8.39078V15.1467H11.6092ZM0.919531 13.0777H19.0805V11.4685H0.919531V13.0777Z" fill="white"/>
<path d="M14.1534 17.1468H14.1994C14.4533 17.1468 14.6592 17.3526 14.6592 17.6065C14.6592 17.8605 14.4533 18.0663 14.1994 18.0663H14.1534C13.8996 18.0663 13.6937 17.8605 13.6937 17.6065C13.6937 17.3526 13.8996 17.1468 14.1534 17.1468Z" fill="white"/>
<path d="M5.84687 18.0663H5.8009C5.54703 18.0663 5.34113 17.8605 5.34113 17.6065C5.34113 17.3526 5.54703 17.1468 5.8009 17.1468H5.84687C6.10074 17.1468 6.30664 17.3526 6.30664 17.6065C6.30664 17.8605 6.10074 18.0663 5.84687 18.0663Z" fill="white"/>
</svg>
