<svg width="16" height="16" viewBox="0 0 16 16" fill="none" xmlns="http://www.w3.org/2000/svg">
<path fill-rule="evenodd" clip-rule="evenodd" d="M14.016 16H4.48H3.84H1.984C0.896 16 0 15.104 0 14.016V1.984C0 0.896 0.896 0 1.984 0H14.016C15.104 0 16 0.896 16 1.984V13.952C16 15.104 15.104 16 14.016 16ZM0.64 14.08C0.64 14.784 1.216 15.36 1.92 15.36H3.84V4.48H0.64V14.08ZM15.36 1.92C15.36 1.216 14.784 0.64 14.08 0.64H1.92C1.216 0.64 0.64 1.216 0.64 1.92V3.84H15.36V4.48H4.48V9.6H15.36V10.24H4.48V15.36H14.08C14.784 15.36 15.36 14.784 15.36 14.08V1.92Z" fill="white"/>
</svg>
